<?xml version="1.0" encoding="UTF-8"?><svg xmlns="http://www.w3.org/2000/svg" viewBox="0 0 32.55 9.97"><defs><style>.d{font-family:Poppins-SemiBold, Poppins;font-size:1.33px;}.d,.e{fill:#dd3022;}.f{fill:#fff;}.g{fill:#feb100;}.h{fill:#f5ffff;}</style></defs><g id="a"/><g id="b"><g id="c"><text class="d" transform="translate(31.7 3.76) rotate(-7.05)"><tspan x="0" y="0">®</tspan></text><g><path class="g" d="M4.55,3.41c-.94,.48-1.74,1.12-2.41,1.93-.02,.03-.04,.06-.07,.08-.08,.09-.09,.1-.19,.03-.61-.47-1.21-.93-1.81-1.4-.03-.03-.05-.07-.07-.11,.04-.02,.07-.06,.11-.07,.49-.12,.99-.24,1.48-.36,.11-.03,.16,.02,.22,.09,.22,.26,.49,.35,.83,.26,.5-.14,.73-.78,.39-1.18-.15-.17-.14-.31-.06-.49,.14-.3,.25-.62,.37-.93,.06-.14,.09-.16,.23-.12,.38,.1,.75,.21,1.13,.31,.1,.03,.15,.07,.16,.18,.06,.48,.55,.76,.98,.63,.36-.11,.6-.48,.54-.86,0-.04-.01-.07-.02-.1-.04-.09,0-.14,.07-.2,.28-.23,.56-.46,.84-.69,.11-.09,.21-.18,.32-.26,.04-.03,.09-.04,.13-.06,.01,.05,.04,.09,.04,.14,0,.52,.01,1.04,.02,1.55,0,.24,0,.47,0,.71,0,.14,0,.15-.15,.15-.76,.02-1.51,.16-2.23,.42-.29,.1-.57,.23-.85,.35Z"/><path class="h" d="M7.82,5.49c-.4-.16-.72-.09-.93,.19-.2,.26-.21,.61-.01,.87,.21,.28,.54,.36,.96,.2v.78c-.4,.15-.59,.4-.59,.74,0,.34,.21,.58,.61,.71,0,.14,0,.28,0,.42,0,.15,0,.31,0,.46,0,.04-.02,.1-.04,.1-.04,0-.09,0-.12-.03-.29-.22-.58-.44-.87-.67-.5-.39-1-.77-1.5-1.16-.03-.02-.06-.05-.09-.08,.44-.25,.59-.55,.48-.92-.09-.3-.39-.52-.71-.51-.37,0-.61,.24-.72,.71-.23-.17-.45-.34-.67-.52-.07-.06-.07-.09,0-.17,.15-.17,.3-.35,.47-.51,.98-.92,2.15-1.42,3.5-1.5,.06,0,.12,0,.2,0v.87Z"/><path class="e" d="M3.02,6.32l-.49-.38c.04-.06,.07-.11,.1-.15,.5-.6,1.08-1.11,1.75-1.51,.97-.59,2.02-.91,3.15-.97,.29-.02,.26-.03,.26,.24,0,.11,0,.22,0,.32,0,.01-.01,.03-.02,.05-1.93,.08-3.52,.87-4.76,2.38Z"/></g><g><path class="h" d="M11.16,1.77l.81,.9c.12,.13,.17,.25,.17,.36s-.05,.21-.15,.3c-.1,.09-.21,.14-.33,.14s-.24-.07-.36-.2l-1.05-1.14v.91c0,.29-.16,.43-.49,.43s-.49-.14-.49-.43V.53c0-.29,.16-.43,.49-.43s.49,.14,.49,.43v.9l1.05-1.13c.13-.14,.25-.21,.36-.21s.22,.04,.33,.14c.1,.09,.15,.19,.15,.3s-.06,.23-.17,.35l-.81,.89Z"/><path class="h" d="M13.5,3.02c0,.29-.16,.43-.49,.43s-.49-.14-.49-.43V.53c0-.29,.16-.43,.49-.43s.49,.14,.49,.43V3.02Z"/><path class="h" d="M16.02,1.6V.53c0-.29,.16-.43,.49-.43s.49,.14,.49,.43V3.02c0,.29-.16,.43-.49,.43-.18,0-.33-.06-.43-.19l-1.1-1.31v1.07c0,.29-.16,.43-.49,.43s-.49-.14-.49-.43V.53c0-.29,.16-.43,.49-.43,.21,0,.36,.07,.45,.2l1.08,1.29Z"/><path class="h" d="M20.55,1.85v.91c0,.21-.11,.38-.33,.52-.22,.14-.58,.21-1.08,.21s-.92-.16-1.25-.48-.5-.74-.5-1.26,.17-.94,.5-1.26c.33-.32,.73-.48,1.19-.48s.82,.07,1.06,.22c.24,.15,.37,.28,.37,.41,0,.13-.04,.24-.13,.34-.09,.1-.17,.15-.26,.15s-.21-.04-.36-.12c-.16-.08-.37-.12-.64-.13s-.46,.08-.59,.25c-.13,.17-.19,.38-.19,.63s.08,.46,.23,.62c.15,.16,.36,.24,.62,.24,.26,0,.39-.1,.39-.3,0-.02,0-.05,0-.07h-.15c-.3,0-.45-.14-.45-.42s.15-.42,.45-.42h.75c.26,0,.38,.15,.38,.45Z"/><path class="g" d="M10.28,7.12l-.09,.25c-.08,.23-.22,.34-.42,.34s-.33-.06-.42-.18c-.08-.12-.13-.23-.13-.32s.02-.19,.06-.28l1.02-2.24c.1-.23,.26-.34,.47-.34s.37,.11,.47,.34l1.03,2.24c.04,.09,.06,.19,.06,.28s-.04,.2-.12,.32c-.08,.12-.22,.18-.42,.18s-.34-.11-.42-.34l-.09-.25h-1.02Zm.72-.8l-.21-.58-.21,.58h.43Z"/><path class="g" d="M14.71,6.29l.49,.65c.07,.1,.11,.2,.11,.31s-.07,.21-.2,.32-.25,.15-.37,.15-.22-.07-.32-.2l-.8-1.07v.84c0,.29-.16,.43-.49,.43s-.49-.14-.49-.43v-2.49c0-.29,.16-.43,.49-.43h1.11c.27,0,.5,.11,.69,.32,.18,.21,.27,.44,.27,.68,0,.43-.17,.74-.5,.93Zm-1.08-1.25v.77h.28c.28,0,.42-.13,.42-.38s-.14-.38-.42-.38h-.28Z"/><path class="g" d="M17.39,5.15v2.14c0,.29-.17,.43-.49,.43s-.49-.14-.49-.43v-2.14h-.5c-.27,0-.4-.13-.4-.4s.13-.4,.4-.4h1.98c.27,0,.4,.13,.4,.4s-.13,.4-.4,.4h-.5Z"/><path class="g" d="M20.74,4.36c.33,0,.49,.14,.49,.43v2.49c0,.29-.16,.43-.49,.43s-.49-.14-.49-.43v-.86h-.67v.86c0,.29-.16,.43-.49,.43s-.49-.14-.49-.43v-2.49c0-.29,.16-.43,.49-.43s.49,.14,.49,.43v.84h.67v-.84c0-.29,.16-.43,.49-.43Z"/><path class="g" d="M24.37,6.81c0,.32-.13,.55-.4,.71s-.58,.23-.92,.23-.65-.08-.92-.23-.4-.39-.4-.71v-2.01c0-.29,.16-.43,.49-.43s.49,.14,.49,.43v1.87c0,.19,.11,.28,.34,.28s.34-.09,.34-.28v-1.87c0-.29,.16-.43,.49-.43s.49,.14,.49,.43v2.01Z"/><path class="g" d="M26.93,6.29l.49,.65c.07,.1,.11,.2,.11,.31s-.07,.21-.2,.32-.25,.15-.37,.15-.22-.07-.32-.2l-.8-1.07v.84c0,.29-.16,.43-.49,.43s-.49-.14-.49-.43v-2.49c0-.29,.16-.43,.49-.43h1.11c.27,0,.5,.11,.69,.32,.18,.21,.27,.44,.27,.68,0,.43-.17,.74-.5,.93Zm-1.08-1.25v.77h.28c.28,0,.42-.13,.42-.38s-.14-.38-.42-.38h-.28Z"/><path class="g" d="M28.71,4.44c.1,.08,.15,.18,.16,.32s-.04,.25-.16,.35c-.12,.1-.25,.19-.4,.27-.15,.08-.28,.08-.39,0-.11-.08-.13-.2-.07-.35,.07-.15,.14-.29,.22-.42,.08-.13,.18-.21,.3-.24,.12-.03,.23,0,.33,.08Z"/><path class="g" d="M30.49,7.73c-.32,0-.63-.05-.93-.15s-.45-.28-.45-.54,.12-.39,.35-.39c.03,0,.17,.05,.42,.14s.45,.14,.63,.14,.26-.07,.26-.22c0-.1-.06-.18-.18-.25-.12-.07-.29-.13-.51-.21-.22-.07-.35-.12-.41-.16-.25-.17-.38-.41-.38-.73s.11-.58,.32-.78c.21-.2,.45-.29,.73-.29s.52,.03,.73,.09c.39,.12,.54,.3,.47,.54-.08,.24-.21,.35-.41,.33-.02,0-.12-.03-.3-.1-.18-.07-.34-.1-.48-.1s-.21,.07-.21,.21c0,.09,.06,.16,.18,.23,.12,.06,.29,.13,.5,.21,.22,.08,.35,.13,.41,.17,.26,.17,.38,.43,.38,.77s-.11,.61-.33,.81c-.21,.19-.48,.29-.79,.29Z"/></g><path class="h" d="M32.38,3.68s.08,.05,.11,.09,.05,.09,.05,.14c0,.05,0,.1-.02,.15-.02,.04-.05,.08-.09,.11-.04,.03-.09,.05-.14,.05s-.1,0-.15-.02c-.04-.02-.08-.05-.11-.09-.03-.04-.05-.08-.05-.14,0-.05,0-.1,.02-.15,.02-.04,.05-.08,.09-.11,.04-.03,.08-.05,.14-.05s.1,0,.15,.02Zm.06,.39s.04-.1,.04-.16c0-.06-.03-.11-.08-.15-.04-.03-.09-.05-.16-.04s-.11,.03-.14,.08c-.03,.04-.05,.1-.04,.16s.03,.11,.08,.14c.04,.03,.09,.05,.16,.04s.11-.03,.14-.08Zm-.06-.15s-.02,.03-.04,.03l.08,.1h-.1l-.07-.08h0v.1h-.08l-.04-.27,.14-.02s.06,0,.08,.02c.02,.01,.03,.04,.04,.06,0,.02,0,.04,0,.05Zm-.14,0h.04s.01,0,.02-.01c0,0,0,0,0-.02,0-.01,0-.02-.03-.02h-.04v.04Z"/><path class="f" d="M10.48,8.5h11.29c0,.74-.6,1.34-1.34,1.34H9.15c0-.74,.6-1.34,1.34-1.34Z"/><g><path class="e" d="M11.09,9.17s-.05,.06-.09,.08-.09,.03-.14,.03h-.11v.25h-.17v-.71h.28c.06,0,.1,0,.14,.03s.07,.05,.09,.08c.02,.03,.03,.07,.03,.12,0,.04,0,.08-.03,.11Zm-.17-.05s.02-.04,.02-.07,0-.05-.02-.07c-.02-.02-.04-.02-.07-.02h-.09v.18h.09s.06,0,.07-.02Z"/><path class="e" d="M13.03,8.83v.71h-.17v-.71h.17Z"/><path class="e" d="M14.99,9.39h.3v.14h-.5v-.13l.3-.44h-.3v-.14h.5v.13l-.3,.44Z"/><path class="e" d="M17.24,9.39h.3v.14h-.5v-.13l.3-.44h-.3v-.14h.5v.13l-.3,.44Z"/><path class="e" d="M19.74,9.41h-.26l-.04,.12h-.18l.26-.71h.2l.26,.71h-.18l-.04-.12Zm-.04-.13l-.09-.26-.09,.26h.17Z"/></g></g></g></svg>