<?xml version="1.0" encoding="UTF-8"?><svg xmlns="http://www.w3.org/2000/svg" viewBox="0 0 32.95 13.94"><defs><style>.d{fill:#feb100;}.e{fill:#dd3022;}.f{fill:#f5ffff;}</style></defs><g id="a"/><g id="b"><g id="c"><g><path class="f" d="M2.85,2.51l1.15,1.27c.16,.18,.25,.35,.25,.5s-.07,.29-.22,.42-.3,.19-.47,.19-.34-.1-.52-.29l-1.49-1.61v1.29c0,.41-.23,.61-.7,.61s-.7-.2-.7-.61V.75C.16,.34,.4,.14,.86,.14s.7,.2,.7,.61v1.28L3.05,.42c.18-.2,.35-.29,.52-.29s.32,.06,.46,.19,.22,.27,.22,.42-.08,.32-.24,.5l-1.15,1.26Z"/><path class="f" d="M6.13,4.29c0,.41-.23,.61-.7,.61s-.7-.2-.7-.61V.75c0-.41,.23-.61,.7-.61s.7,.2,.7,.61v3.53Z"/><path class="f" d="M9.69,2.26V.75c0-.41,.23-.61,.7-.61s.7,.2,.7,.61v3.53c0,.41-.23,.61-.7,.61-.26,0-.46-.09-.61-.27l-1.56-1.86v1.52c0,.41-.23,.61-.7,.61s-.7-.2-.7-.61V.75c0-.41,.23-.61,.7-.61,.3,0,.51,.09,.64,.29l1.54,1.83Z"/><path class="f" d="M16.07,2.62v1.29c0,.29-.16,.54-.47,.73-.31,.2-.82,.3-1.53,.3s-1.3-.23-1.77-.68c-.47-.45-.71-1.05-.71-1.79s.23-1.33,.7-1.79c.47-.46,1.03-.69,1.69-.69s1.16,.1,1.5,.31,.52,.4,.52,.58c0,.18-.05,.34-.18,.48-.12,.14-.24,.21-.36,.21s-.29-.06-.51-.17c-.22-.11-.53-.17-.9-.18-.38,0-.66,.11-.84,.35-.18,.24-.27,.53-.27,.89s.11,.65,.32,.88c.21,.23,.51,.34,.87,.34,.37,0,.55-.15,.55-.43,0-.03,0-.07-.01-.1h-.22c-.42,0-.63-.2-.63-.59s.21-.59,.63-.59h1.06c.36,0,.54,.21,.54,.64Z"/><path class="d" d="M1.6,10.09l-.13,.36c-.12,.32-.32,.48-.59,.48s-.47-.08-.59-.25-.18-.32-.18-.45,.03-.26,.09-.39l1.45-3.18c.15-.32,.37-.48,.67-.48s.52,.16,.67,.48l1.46,3.18c.06,.13,.09,.26,.09,.4s-.06,.28-.17,.45-.31,.25-.59,.25-.48-.16-.6-.48l-.13-.36H1.6Zm1.02-1.13l-.3-.82-.3,.82h.61Z"/><path class="d" d="M7.85,8.91l.7,.92c.1,.14,.15,.28,.15,.44s-.09,.3-.28,.45-.36,.22-.52,.22-.31-.1-.45-.29l-1.14-1.52v1.19c0,.41-.23,.61-.7,.61s-.7-.2-.7-.61v-3.53c0-.41,.23-.61,.7-.61h1.58c.39,0,.71,.15,.97,.45,.26,.3,.39,.62,.39,.96,0,.61-.24,1.05-.71,1.32Zm-1.53-1.78v1.08h.4c.4,0,.59-.18,.59-.54s-.2-.54-.59-.54h-.4Z"/><path class="d" d="M11.62,7.3v3.03c0,.41-.23,.61-.7,.61s-.7-.21-.7-.61v-3.03h-.7c-.38,0-.56-.19-.56-.56s.19-.56,.56-.56h2.81c.38,0,.56,.19,.56,.56s-.19,.56-.56,.56h-.71Z"/><path class="d" d="M16.33,6.18c.47,0,.7,.2,.7,.61v3.53c0,.41-.23,.61-.7,.61s-.7-.2-.7-.61v-1.21h-.95v1.21c0,.41-.23,.61-.7,.61s-.7-.2-.7-.61v-3.53c0-.41,.23-.61,.7-.61s.7,.2,.7,.61v1.19h.95v-1.19c0-.41,.23-.61,.7-.61Z"/><path class="d" d="M21.45,9.64c0,.45-.19,.78-.57,1-.38,.22-.82,.33-1.3,.33s-.92-.11-1.3-.33c-.38-.22-.57-.55-.57-1v-2.85c0-.41,.23-.61,.7-.61s.7,.2,.7,.61v2.65c0,.27,.16,.4,.48,.4s.48-.13,.48-.4v-2.65c0-.41,.23-.61,.7-.61s.7,.2,.7,.61v2.85Z"/><path class="d" d="M25.04,8.91l.7,.92c.1,.14,.15,.28,.15,.44s-.09,.3-.28,.45-.36,.22-.52,.22-.31-.1-.45-.29l-1.14-1.52v1.19c0,.41-.23,.61-.7,.61s-.7-.2-.7-.61v-3.53c0-.41,.23-.61,.7-.61h1.58c.39,0,.71,.15,.97,.45,.26,.3,.39,.62,.39,.96,0,.61-.24,1.05-.71,1.32Zm-1.53-1.78v1.08h.4c.4,0,.59-.18,.59-.54s-.2-.54-.59-.54h-.4Z"/><path class="d" d="M27.53,6.3c.14,.11,.21,.26,.23,.45,.02,.19-.06,.36-.23,.5-.17,.14-.35,.27-.56,.39-.21,.12-.39,.12-.55,0-.16-.12-.19-.29-.1-.5,.09-.22,.2-.42,.31-.6,.11-.19,.25-.3,.43-.34,.18-.04,.33,0,.47,.11Z"/><path class="d" d="M30.03,10.95c-.45,0-.89-.07-1.32-.21-.43-.14-.64-.4-.64-.77s.17-.55,.5-.55c.05,0,.25,.06,.59,.19,.34,.13,.64,.19,.89,.19s.38-.11,.38-.32c0-.14-.09-.25-.26-.35-.17-.09-.41-.19-.72-.29-.31-.1-.5-.18-.58-.23-.36-.24-.54-.58-.54-1.04s.15-.82,.45-1.11c.29-.28,.64-.42,1.03-.42s.74,.04,1.04,.13c.55,.17,.77,.43,.66,.77-.11,.34-.3,.5-.59,.47-.03,0-.17-.05-.42-.14-.26-.1-.48-.14-.68-.14s-.3,.1-.3,.29c0,.12,.08,.23,.25,.32,.17,.09,.4,.19,.71,.3,.31,.11,.5,.19,.58,.25,.36,.24,.54,.61,.54,1.09s-.15,.87-.46,1.15c-.3,.27-.67,.41-1.13,.41Z"/></g><path class="f" d="M32.71,5.41c.06,.03,.12,.07,.16,.12,.04,.06,.06,.12,.07,.2,0,.08,0,.14-.02,.21-.03,.06-.07,.12-.12,.16-.06,.04-.12,.07-.2,.07-.07,0-.14,0-.21-.02-.06-.03-.12-.07-.16-.12-.04-.06-.07-.12-.08-.2,0-.08,0-.15,.03-.21,.03-.06,.07-.12,.12-.16s.12-.06,.2-.07c.08,0,.14,0,.21,.02Zm.08,.56c.05-.06,.06-.14,.05-.22-.01-.09-.05-.16-.11-.21-.06-.05-.13-.07-.22-.05-.09,.01-.16,.05-.2,.11-.05,.06-.06,.14-.05,.23s.05,.16,.11,.21c.06,.05,.13,.07,.22,.05,.09-.01,.16-.05,.2-.11Zm-.09-.21s-.03,.04-.05,.05l.11,.14-.14,.02-.1-.13h-.01l.02,.14-.12,.02-.05-.39,.19-.02s.08,0,.11,.02c.03,.02,.04,.05,.05,.09,0,.03,0,.05-.01,.07Zm-.2,0h.06s.02-.01,.02-.02,0-.01,0-.02c0-.02-.01-.03-.03-.02h-.06v.07Z"/><path class="e" d="M1.9,12.04h15.99c0,1.05-.85,1.9-1.9,1.9H0C0,12.89,.85,12.04,1.9,12.04Z"/><g><path class="f" d="M2.76,12.99s-.07,.09-.12,.12-.12,.04-.21,.04h-.15v.36h-.24v-1h.4c.08,0,.15,.01,.2,.04,.06,.03,.1,.07,.12,.11,.03,.05,.04,.1,.04,.17,0,.06-.01,.11-.04,.16Zm-.24-.07s.03-.05,.03-.09-.01-.07-.03-.09-.06-.03-.1-.03h-.13v.25h.13s.08-.01,.1-.03Z"/><path class="f" d="M5.5,12.51v1h-.24v-1h.24Z"/><path class="f" d="M8.28,13.31h.43v.2h-.71v-.19l.43-.62h-.43v-.2h.71v.19l-.43,.62Z"/><path class="f" d="M11.47,13.31h.43v.2h-.71v-.19l.43-.62h-.43v-.2h.71v.19l-.43,.62Z"/><path class="f" d="M15.02,13.33h-.37l-.06,.18h-.26l.36-1h.28l.36,1h-.26l-.06-.18Zm-.06-.19l-.12-.37-.12,.37h.25Z"/></g></g></g></svg>