<?xml version="1.0" encoding="UTF-8"?><svg xmlns="http://www.w3.org/2000/svg" viewBox="0 0 32.57 10.1"><defs><style>.d{fill:#feb100;}.e{fill:#dd3022;}.f{fill:#f5ffff;}</style></defs><g id="a"/><g id="b"><g id="c"><g><path class="d" d="M4.61,3.46c-.95,.49-1.76,1.13-2.44,1.95-.02,.03-.04,.06-.07,.08-.08,.1-.09,.1-.19,.03-.61-.47-1.23-.94-1.84-1.42-.03-.03-.05-.07-.07-.11,.04-.02,.07-.06,.11-.07,.5-.12,1-.24,1.5-.36,.11-.03,.16,.02,.22,.09,.22,.27,.5,.36,.84,.27,.51-.14,.74-.79,.4-1.19-.15-.18-.14-.31-.06-.5,.14-.31,.25-.63,.38-.94,.06-.14,.09-.16,.24-.12,.38,.1,.76,.21,1.14,.31,.1,.03,.15,.07,.16,.18,.06,.48,.55,.77,.99,.64,.36-.11,.61-.49,.54-.87,0-.04-.01-.07-.02-.11-.04-.09,0-.15,.07-.2,.29-.23,.57-.47,.85-.7,.11-.09,.21-.18,.33-.27,.04-.03,.09-.04,.13-.06,.01,.05,.04,.09,.04,.14,0,.52,.01,1.05,.02,1.57,0,.24,0,.48,0,.72,0,.14,0,.15-.15,.15-.77,.02-1.53,.16-2.26,.42-.29,.1-.58,.23-.87,.35Z"/><path class="e" d="M7.92,5.56c-.4-.16-.73-.09-.94,.19-.2,.26-.21,.62-.01,.89,.21,.29,.55,.36,.97,.2v.79c-.4,.15-.6,.4-.6,.75,0,.34,.21,.59,.62,.72,0,.14,0,.28,0,.43,0,.16,0,.31,0,.47,0,.04-.02,.1-.04,.11-.04,0-.09,0-.12-.03-.29-.22-.59-.45-.88-.67-.51-.39-1.01-.78-1.52-1.17-.03-.02-.06-.05-.09-.08,.44-.26,.6-.55,.49-.93-.09-.31-.39-.52-.72-.52-.38,0-.62,.24-.73,.72-.23-.18-.46-.35-.68-.52-.07-.06-.07-.09,0-.17,.15-.17,.31-.35,.48-.51,1-.94,2.18-1.44,3.55-1.52,.06,0,.12,0,.2,0v.88Z"/><path class="e" d="M3.06,6.4l-.5-.38c.04-.06,.07-.11,.1-.15,.5-.61,1.09-1.12,1.77-1.53,.98-.59,2.05-.92,3.2-.98,.29-.02,.26-.03,.27,.25,0,.11,0,.22,0,.33,0,.01-.01,.03-.02,.06-1.96,.08-3.56,.88-4.82,2.41Z"/></g><g><path class="d" d="M11.3,1.79l.82,.91c.12,.13,.18,.25,.18,.36s-.05,.21-.16,.3c-.1,.09-.21,.14-.33,.14s-.24-.07-.37-.21l-1.06-1.15v.92c0,.29-.17,.44-.5,.44s-.5-.15-.5-.44V.54c0-.29,.17-.44,.5-.44s.5,.15,.5,.44v.91l1.06-1.15c.13-.14,.25-.21,.37-.21s.23,.04,.33,.14c.1,.09,.15,.19,.15,.3s-.06,.23-.17,.36l-.82,.9Z"/><path class="d" d="M13.67,3.06c0,.29-.17,.44-.5,.44s-.5-.15-.5-.44V.54c0-.29,.17-.44,.5-.44s.5,.15,.5,.44V3.06Z"/><path class="d" d="M16.23,1.62V.54c0-.29,.17-.44,.5-.44s.5,.15,.5,.44V3.06c0,.29-.17,.44-.5,.44-.18,0-.33-.06-.44-.19l-1.12-1.33v1.08c0,.29-.17,.44-.5,.44s-.5-.15-.5-.44V.54c0-.29,.17-.44,.5-.44,.21,0,.37,.07,.46,.21l1.1,1.31Z"/><path class="d" d="M20.82,1.88v.92c0,.21-.11,.38-.33,.52-.22,.14-.58,.21-1.09,.21s-.93-.16-1.26-.49-.51-.75-.51-1.28,.17-.95,.5-1.28c.34-.33,.74-.49,1.21-.49s.83,.07,1.08,.22c.25,.15,.37,.29,.37,.42,0,.13-.04,.25-.13,.35-.09,.1-.17,.15-.26,.15s-.21-.04-.37-.12c-.16-.08-.38-.12-.65-.13-.27,0-.47,.08-.6,.25-.13,.17-.2,.38-.2,.64s.08,.46,.23,.63c.15,.17,.36,.25,.62,.24,.26,0,.4-.11,.4-.31,0-.02,0-.05,0-.07h-.16c-.3,0-.45-.14-.45-.42s.15-.42,.45-.42h.76c.26,0,.39,.15,.39,.46Z"/><path class="e" d="M10.41,7.22l-.1,.26c-.09,.23-.23,.34-.42,.34s-.34-.06-.42-.18c-.08-.12-.13-.23-.13-.32s.02-.19,.06-.28l1.04-2.27c.1-.23,.26-.34,.48-.34s.37,.11,.48,.34l1.04,2.27c.04,.09,.07,.19,.07,.28s-.04,.2-.12,.32-.22,.18-.42,.18-.34-.11-.43-.34l-.1-.26h-1.03Zm.73-.81l-.22-.59-.22,.59h.43Z"/><path class="e" d="M14.9,6.37l.5,.66c.07,.1,.11,.2,.11,.31s-.07,.22-.2,.32c-.13,.1-.26,.16-.37,.16s-.22-.07-.32-.2l-.81-1.08v.85c0,.29-.17,.44-.5,.44s-.5-.15-.5-.44v-2.53c0-.29,.17-.44,.5-.44h1.13c.28,0,.51,.11,.7,.32,.18,.21,.28,.44,.28,.69,0,.44-.17,.75-.51,.94Zm-1.09-1.27v.78h.29c.28,0,.42-.13,.42-.39s-.14-.39-.42-.39h-.29Z"/><path class="e" d="M17.62,5.22v2.17c0,.29-.17,.44-.5,.44s-.5-.15-.5-.44v-2.17h-.5c-.27,0-.4-.13-.4-.4s.13-.4,.4-.4h2.01c.27,0,.4,.13,.4,.4s-.13,.4-.4,.4h-.51Z"/><path class="e" d="M21.01,4.42c.33,0,.5,.15,.5,.44v2.53c0,.29-.17,.44-.5,.44s-.5-.15-.5-.44v-.87h-.68v.87c0,.29-.17,.44-.5,.44s-.5-.15-.5-.44v-2.53c0-.29,.17-.44,.5-.44s.5,.15,.5,.44v.85h.68v-.85c0-.29,.17-.44,.5-.44Z"/><path class="e" d="M24.69,6.89c0,.32-.14,.56-.41,.71s-.58,.23-.93,.23-.66-.08-.93-.23c-.27-.16-.41-.39-.41-.71v-2.04c0-.29,.17-.44,.5-.44s.5,.15,.5,.44v1.9c0,.19,.11,.29,.34,.29s.34-.1,.34-.29v-1.9c0-.29,.17-.44,.5-.44s.5,.15,.5,.44v2.04Z"/><path class="e" d="M27.28,6.37l.5,.66c.07,.1,.11,.2,.11,.31s-.07,.22-.2,.32c-.13,.1-.26,.16-.37,.16s-.22-.07-.32-.2l-.81-1.08v.85c0,.29-.17,.44-.5,.44s-.5-.15-.5-.44v-2.53c0-.29,.17-.44,.5-.44h1.13c.28,0,.51,.11,.7,.32,.18,.21,.28,.44,.28,.69,0,.44-.17,.75-.51,.94Zm-1.09-1.27v.78h.29c.28,0,.42-.13,.42-.39s-.14-.39-.42-.39h-.29Z"/><path class="e" d="M29.08,4.5c.1,.08,.15,.19,.16,.32,.01,.14-.04,.25-.16,.36s-.25,.19-.4,.28c-.15,.08-.28,.08-.39,0-.11-.08-.14-.21-.07-.36,.07-.15,.14-.3,.22-.43,.08-.13,.18-.21,.31-.24,.12-.03,.24,0,.33,.08Z"/><path class="e" d="M30.89,7.83c-.32,0-.64-.05-.94-.15-.3-.1-.46-.29-.46-.55s.12-.4,.36-.4c.04,0,.17,.05,.42,.14,.25,.09,.46,.14,.64,.14s.27-.08,.27-.23c0-.1-.06-.18-.18-.25-.12-.07-.29-.14-.51-.21-.22-.07-.36-.13-.41-.16-.26-.17-.38-.42-.38-.74s.11-.59,.32-.79c.21-.2,.45-.3,.74-.3s.53,.03,.74,.09c.39,.12,.55,.31,.47,.55-.08,.24-.22,.36-.42,.34-.02,0-.12-.03-.3-.1-.18-.07-.35-.1-.49-.1s-.21,.07-.21,.21c0,.09,.06,.17,.18,.23,.12,.07,.29,.14,.51,.21,.22,.08,.36,.13,.42,.18,.26,.17,.39,.43,.39,.78s-.11,.62-.33,.82c-.21,.2-.48,.29-.8,.29Z"/></g><path class="e" d="M32.4,3.87s.08,.05,.11,.09c.03,.04,.05,.09,.05,.14s0,.1-.02,.15c-.02,.04-.05,.08-.09,.11-.04,.03-.09,.05-.14,.05-.05,0-.1,0-.15-.02-.04-.02-.08-.05-.11-.09s-.05-.09-.05-.14,0-.1,.02-.15c.02-.05,.05-.08,.09-.11,.04-.03,.09-.05,.14-.05,.05,0,.1,0,.15,.02Zm.06,.4s.05-.1,.04-.16-.03-.11-.08-.15-.1-.05-.16-.04-.11,.03-.14,.08c-.03,.04-.04,.1-.04,.16,0,.06,.03,.11,.08,.15,.04,.03,.1,.05,.16,.04s.11-.04,.14-.08Zm-.06-.15s-.02,.03-.03,.04l.08,.1h-.1l-.07-.08h0v.1h-.08l-.04-.27,.14-.02s.06,0,.08,.02c.02,.01,.03,.04,.04,.06,0,.02,0,.04,0,.05Zm-.14,0h.04s.01,0,.01-.01c0,0,0,0,0-.02,0-.01,0-.02-.02-.02h-.04v.05Z"/><path class="e" d="M10.62,8.61h11.43c0,.75-.61,1.36-1.36,1.36H9.27c0-.75,.61-1.36,1.36-1.36Z"/><g><path class="f" d="M11.24,9.28s-.05,.06-.09,.08c-.04,.02-.09,.03-.15,.03h-.11v.26h-.17v-.72h.28c.06,0,.11,0,.15,.03,.04,.02,.07,.05,.09,.08,.02,.04,.03,.07,.03,.12,0,.04,0,.08-.03,.11Zm-.17-.05s.02-.04,.02-.07,0-.05-.02-.07-.04-.02-.07-.02h-.09v.18h.09s.06,0,.07-.02Z"/><path class="f" d="M13.2,8.94v.72h-.17v-.72h.17Z"/><path class="f" d="M15.18,9.51h.31v.14h-.51v-.13l.31-.44h-.31v-.14h.51v.13l-.31,.44Z"/><path class="f" d="M17.46,9.51h.31v.14h-.51v-.13l.31-.44h-.31v-.14h.51v.13l-.31,.44Z"/><path class="f" d="M20,9.53h-.27l-.04,.13h-.18l.26-.72h.2l.26,.72h-.19l-.04-.13Zm-.04-.13l-.09-.26-.09,.26h.18Z"/></g></g></g></svg>