<?xml version="1.0" encoding="UTF-8"?><svg xmlns="http://www.w3.org/2000/svg" viewBox="0 0 30.59 9.48"><defs><style>.d{fill:#feb100;}.e{fill:#dd3022;}.f{fill:#f5ffff;}</style></defs><g id="a"/><g id="b"><g id="c"><g><path class="d" d="M4.33,3.25c-.89,.46-1.66,1.07-2.29,1.83-.02,.03-.04,.05-.06,.08-.08,.09-.09,.09-.18,.02-.58-.44-1.15-.89-1.73-1.33-.03-.02-.05-.07-.07-.1,.03-.02,.07-.05,.1-.06,.47-.11,.94-.22,1.41-.34,.1-.03,.15,.02,.21,.09,.21,.25,.47,.34,.78,.25,.48-.13,.69-.74,.37-1.12-.14-.16-.14-.29-.06-.47,.13-.29,.24-.59,.35-.88,.05-.13,.08-.15,.22-.11,.36,.1,.71,.2,1.07,.29,.09,.02,.14,.07,.15,.17,.05,.45,.52,.72,.93,.6,.34-.1,.57-.46,.51-.82,0-.03-.01-.07-.02-.1-.04-.08,0-.14,.06-.19,.27-.22,.53-.44,.8-.66,.1-.08,.2-.17,.31-.25,.04-.03,.08-.04,.13-.05,.01,.04,.04,.09,.04,.13,0,.49,.01,.99,.02,1.48,0,.22,0,.45,0,.67,0,.13,0,.14-.14,.14-.73,.02-1.43,.15-2.12,.4-.28,.1-.54,.22-.81,.33Z"/><path class="f" d="M7.43,5.22c-.38-.15-.68-.08-.89,.18-.19,.25-.2,.58-.01,.83,.2,.27,.52,.34,.91,.19v.74c-.38,.14-.56,.38-.56,.7,0,.32,.2,.55,.58,.68,0,.13,0,.27,0,.4,0,.15,0,.29,0,.44,0,.04-.02,.09-.03,.1-.03,0-.09,0-.12-.03-.28-.21-.55-.42-.82-.63-.47-.37-.95-.73-1.42-1.1-.03-.02-.06-.05-.09-.08,.42-.24,.56-.52,.46-.87-.08-.29-.37-.49-.68-.49-.36,0-.58,.23-.68,.68-.22-.17-.43-.33-.64-.49-.07-.05-.07-.08,0-.16,.15-.16,.29-.33,.45-.48,.94-.88,2.05-1.35,3.33-1.43,.06,0,.11,0,.19,0v.83Z"/><path class="e" d="M2.87,6.01l-.46-.36c.04-.06,.06-.1,.1-.14,.47-.57,1.02-1.05,1.66-1.44,.92-.56,1.93-.86,3-.92,.27-.02,.25-.03,.25,.23,0,.1,0,.2,0,.31,0,.01,0,.03-.02,.05-1.84,.07-3.34,.82-4.52,2.27Z"/></g><g><path class="f" d="M10.61,1.68l.77,.85c.11,.12,.17,.24,.17,.34s-.05,.2-.15,.28c-.1,.09-.2,.13-.31,.13s-.23-.06-.35-.19l-1-1.08v.87c0,.27-.16,.41-.47,.41s-.47-.14-.47-.41V.51c0-.27,.16-.41,.47-.41s.47,.14,.47,.41v.86l1-1.08c.12-.13,.24-.2,.35-.2s.21,.04,.31,.13,.15,.18,.15,.28-.05,.22-.16,.34l-.77,.85Z"/><path class="f" d="M12.84,2.88c0,.27-.16,.41-.47,.41s-.47-.14-.47-.41V.51c0-.27,.16-.41,.47-.41s.47,.14,.47,.41V2.88Z"/><path class="f" d="M15.24,1.52V.51c0-.27,.16-.41,.47-.41s.47,.14,.47,.41V2.88c0,.27-.16,.41-.47,.41-.17,0-.31-.06-.41-.18l-1.05-1.25v1.02c0,.27-.16,.41-.47,.41s-.47-.14-.47-.41V.51c0-.27,.16-.41,.47-.41,.2,0,.34,.06,.43,.19l1.03,1.23Z"/><path class="f" d="M19.55,1.76v.87c0,.2-.1,.36-.31,.49s-.55,.2-1.02,.2-.87-.15-1.19-.46c-.32-.31-.48-.7-.48-1.2s.16-.89,.47-1.2c.32-.31,.69-.46,1.14-.46s.78,.07,1.01,.21c.23,.14,.35,.27,.35,.39,0,.12-.04,.23-.12,.33-.08,.1-.16,.14-.24,.14s-.2-.04-.35-.11c-.15-.08-.35-.12-.61-.12-.25,0-.44,.07-.56,.23s-.18,.36-.18,.6,.07,.44,.22,.59c.14,.15,.34,.23,.59,.23,.25,0,.37-.1,.37-.29,0-.02,0-.04,0-.07h-.15c-.28,0-.43-.13-.43-.4s.14-.4,.43-.4h.71c.24,0,.36,.14,.36,.43Z"/><path class="d" d="M9.78,6.78l-.09,.24c-.08,.21-.21,.32-.4,.32s-.32-.06-.4-.17c-.08-.11-.12-.21-.12-.3s.02-.18,.06-.27l.97-2.13c.1-.21,.25-.32,.45-.32s.35,.11,.45,.32l.98,2.13c.04,.09,.06,.18,.06,.27s-.04,.19-.12,.3c-.08,.11-.21,.17-.4,.17s-.32-.11-.4-.32l-.09-.24h-.96Zm.69-.76l-.2-.55-.2,.55h.41Z"/><path class="d" d="M13.99,5.98l.47,.62c.07,.09,.1,.19,.1,.29s-.06,.2-.19,.3c-.13,.1-.24,.15-.35,.15s-.21-.06-.3-.19l-.76-1.02v.8c0,.27-.16,.41-.47,.41s-.47-.14-.47-.41v-2.37c0-.27,.16-.41,.47-.41h1.06c.26,0,.48,.1,.65,.3,.17,.2,.26,.42,.26,.65,0,.41-.16,.71-.48,.89Zm-1.03-1.19v.73h.27c.26,0,.4-.12,.4-.36s-.13-.36-.4-.36h-.27Z"/><path class="d" d="M16.54,4.9v2.03c0,.27-.16,.41-.47,.41s-.47-.14-.47-.41v-2.03h-.47c-.25,0-.38-.13-.38-.38s.13-.38,.38-.38h1.89c.25,0,.38,.13,.38,.38s-.13,.38-.38,.38h-.48Z"/><path class="d" d="M19.73,4.15c.31,0,.47,.14,.47,.41v2.37c0,.27-.16,.41-.47,.41s-.47-.14-.47-.41v-.81h-.64v.81c0,.27-.16,.41-.47,.41s-.47-.14-.47-.41v-2.37c0-.27,.16-.41,.47-.41s.47,.14,.47,.41v.8h.64v-.8c0-.27,.16-.41,.47-.41Z"/><path class="d" d="M23.18,6.47c0,.3-.13,.52-.38,.67-.26,.15-.55,.22-.87,.22s-.62-.07-.87-.22c-.26-.15-.38-.37-.38-.67v-1.92c0-.27,.16-.41,.47-.41s.47,.14,.47,.41v1.78c0,.18,.11,.27,.32,.27s.32-.09,.32-.27v-1.78c0-.27,.16-.41,.47-.41s.47,.14,.47,.41v1.92Z"/><path class="d" d="M25.61,5.98l.47,.62c.07,.09,.1,.19,.1,.29s-.06,.2-.19,.3c-.13,.1-.24,.15-.35,.15s-.21-.06-.3-.19l-.76-1.02v.8c0,.27-.16,.41-.47,.41s-.47-.14-.47-.41v-2.37c0-.27,.16-.41,.47-.41h1.06c.26,0,.48,.1,.65,.3,.17,.2,.26,.42,.26,.65,0,.41-.16,.71-.48,.89Zm-1.03-1.19v.73h.27c.26,0,.4-.12,.4-.36s-.13-.36-.4-.36h-.27Z"/><path class="d" d="M27.31,4.23c.09,.07,.14,.17,.15,.3s-.04,.24-.15,.33-.24,.18-.38,.26c-.14,.08-.26,.08-.37,0s-.13-.19-.07-.34c.06-.14,.13-.28,.21-.4s.17-.2,.29-.23c.12-.03,.22,0,.31,.07Z"/><path class="d" d="M29.01,7.35c-.3,0-.6-.05-.88-.14-.29-.1-.43-.27-.43-.52s.11-.37,.34-.37c.03,0,.17,.04,.39,.13,.23,.09,.43,.13,.6,.13s.25-.07,.25-.21c0-.09-.06-.17-.17-.23-.12-.06-.28-.13-.48-.19s-.33-.12-.39-.15c-.24-.16-.36-.39-.36-.7s.1-.55,.3-.74c.2-.19,.43-.28,.69-.28s.5,.03,.7,.09c.37,.12,.52,.29,.45,.52-.07,.23-.2,.33-.39,.32-.02,0-.11-.03-.28-.1-.17-.06-.32-.1-.46-.1s-.2,.07-.2,.2c0,.08,.06,.16,.17,.22,.11,.06,.27,.13,.48,.2s.33,.13,.39,.16c.24,.16,.36,.41,.36,.73s-.1,.58-.31,.77c-.2,.18-.45,.28-.76,.28Z"/></g><path class="f" d="M30.43,3.63s.08,.04,.1,.08,.04,.08,.05,.13c0,.05,0,.1-.02,.14s-.04,.08-.08,.1c-.04,.03-.08,.05-.13,.05-.05,0-.1,0-.14-.02-.04-.02-.08-.04-.11-.08-.03-.04-.04-.08-.05-.13,0-.05,0-.1,.02-.14,.02-.04,.04-.08,.08-.1,.04-.03,.08-.04,.13-.05,.05,0,.1,0,.14,.02Zm.05,.37s.04-.09,.04-.15c0-.06-.03-.11-.07-.14-.04-.03-.09-.04-.15-.04s-.1,.03-.14,.07-.04,.09-.04,.15c0,.06,.03,.11,.07,.14,.04,.03,.09,.04,.15,.04,.06,0,.1-.03,.13-.07Zm-.06-.14s-.02,.03-.03,.03l.08,.09h-.1l-.06-.07h0v.09h-.07l-.03-.25,.13-.02s.05,0,.07,.01c.02,.01,.03,.04,.03,.06,0,.02,0,.03,0,.05Zm-.13,0h.04s.01,0,.01-.01,0,0,0-.02c0-.01,0-.02-.02-.01h-.04v.04Z"/><path class="e" d="M9.97,8.08h10.73c0,.7-.57,1.27-1.27,1.27H8.7c0-.7,.57-1.27,1.27-1.27Z"/><g><path class="f" d="M10.55,8.72s-.04,.06-.08,.08c-.04,.02-.08,.03-.14,.03h-.1v.24h-.16v-.67h.27c.05,0,.1,0,.14,.03s.06,.04,.08,.08,.03,.07,.03,.11c0,.04,0,.07-.03,.11Zm-.16-.04s.02-.04,.02-.06,0-.05-.02-.06c-.02-.01-.04-.02-.07-.02h-.09v.17h.09s.05,0,.07-.02Z"/><path class="f" d="M12.39,8.39v.67h-.16v-.67h.16Z"/><path class="f" d="M14.26,8.93h.29v.13h-.48v-.12l.29-.41h-.29v-.13h.48v.12l-.29,.41Z"/><path class="f" d="M16.39,8.93h.29v.13h-.48v-.12l.29-.41h-.29v-.13h.48v.12l-.29,.41Z"/><path class="f" d="M18.78,8.95h-.25l-.04,.12h-.17l.24-.67h.19l.24,.67h-.17l-.04-.12Zm-.04-.13l-.08-.25-.08,.25h.17Z"/></g></g></g></svg>