<?xml version="1.0" encoding="UTF-8"?><svg xmlns="http://www.w3.org/2000/svg" viewBox="0 0 34.2 10.79"><defs><style>.d{letter-spacing:1.63em;}.e{letter-spacing:1.64em;}.f{fill:#feb100;}.g{letter-spacing:1.61em;}.h{font-family:Poppins-Bold, Poppins;font-size:1.07px;}.h,.i{fill:#f5ffff;}.j{fill:#dd3022;}.k{letter-spacing:1.63em;}</style></defs><g id="a"/><g id="b"><g id="c"><g><path class="f" d="M4.84,3.63c-.99,.51-1.85,1.19-2.56,2.05-.02,.03-.05,.06-.07,.09-.09,.1-.1,.11-.2,.03-.64-.5-1.29-.99-1.93-1.49-.03-.03-.05-.08-.08-.11,.04-.02,.07-.06,.12-.07,.52-.13,1.05-.25,1.57-.38,.11-.03,.17,.02,.23,.1,.23,.28,.53,.38,.88,.28,.53-.14,.77-.83,.42-1.25-.15-.18-.15-.32-.06-.52,.14-.32,.26-.66,.4-.99,.06-.15,.09-.17,.25-.12,.4,.11,.8,.22,1.2,.33,.1,.03,.15,.08,.17,.19,.06,.51,.58,.81,1.04,.67,.38-.11,.64-.51,.57-.92,0-.04-.01-.08-.03-.11-.04-.09,0-.15,.07-.21,.3-.24,.6-.49,.9-.74,.11-.09,.22-.19,.34-.28,.04-.03,.09-.04,.14-.06,.02,.05,.04,.1,.04,.15,0,.55,.01,1.1,.02,1.65,0,.25,0,.5,0,.75,0,.15,0,.16-.16,.16-.81,.03-1.6,.17-2.37,.45-.31,.11-.61,.25-.91,.37Z"/><path class="i" d="M8.31,5.84c-.42-.17-.76-.09-.99,.2-.21,.27-.22,.65-.01,.93,.22,.3,.58,.38,1.02,.21v.83c-.42,.16-.63,.42-.63,.78,0,.36,.22,.62,.65,.76,0,.15,0,.3,0,.45,0,.16,0,.33,0,.49,0,.04-.02,.11-.04,.11-.04,0-.1,0-.13-.03-.31-.23-.61-.47-.92-.71-.53-.41-1.06-.82-1.59-1.23-.03-.03-.06-.06-.1-.09,.47-.27,.63-.58,.52-.98-.09-.32-.41-.55-.76-.54-.4,0-.65,.26-.76,.75-.24-.19-.48-.36-.71-.55-.08-.06-.08-.09,0-.18,.16-.18,.32-.37,.5-.54,1.05-.98,2.29-1.51,3.72-1.6,.06,0,.13,0,.21,0v.93Z"/><path class="j" d="M3.21,6.72l-.52-.4c.04-.06,.07-.11,.11-.16,.53-.64,1.14-1.18,1.86-1.61,1.03-.62,2.15-.96,3.36-1.03,.3-.02,.28-.03,.28,.26,0,.11,0,.23,0,.34,0,.01-.01,.03-.02,.06-2.05,.08-3.74,.92-5.06,2.53Z"/></g><g><path class="i" d="M11.87,1.88l.86,.95c.12,.14,.18,.26,.18,.38s-.05,.22-.16,.32c-.11,.1-.23,.15-.35,.15s-.25-.07-.39-.22l-1.12-1.21v.97c0,.31-.17,.46-.52,.46s-.52-.15-.52-.46V.57c0-.31,.17-.46,.52-.46s.52,.15,.52,.46v.96l1.12-1.21c.14-.15,.27-.22,.39-.22s.24,.05,.35,.14,.16,.2,.16,.32-.06,.24-.18,.38l-.86,.95Z"/><path class="i" d="M14.35,3.22c0,.31-.17,.46-.52,.46s-.52-.15-.52-.46V.57c0-.31,.17-.46,.52-.46s.52,.15,.52,.46V3.22Z"/><path class="i" d="M17.04,1.7V.57c0-.31,.17-.46,.52-.46s.52,.15,.52,.46V3.22c0,.31-.17,.46-.52,.46-.19,0-.35-.07-.46-.2l-1.17-1.4v1.14c0,.31-.17,.46-.52,.46s-.52-.15-.52-.46V.57c0-.31,.17-.46,.52-.46,.22,0,.38,.07,.48,.22l1.15,1.38Z"/><path class="i" d="M21.86,1.97v.97c0,.22-.12,.4-.35,.55-.23,.15-.61,.22-1.15,.22s-.97-.17-1.33-.51-.53-.79-.53-1.34,.18-1,.53-1.34c.35-.34,.78-.51,1.27-.51s.87,.08,1.13,.23c.26,.16,.39,.3,.39,.44s-.04,.26-.13,.36c-.09,.11-.18,.16-.27,.16s-.22-.04-.39-.13c-.17-.09-.39-.13-.68-.13s-.49,.08-.63,.26-.21,.4-.21,.67,.08,.49,.24,.66c.16,.17,.38,.26,.66,.25,.28,0,.42-.11,.42-.32,0-.02,0-.05-.01-.07h-.16c-.32,0-.48-.15-.48-.44s.16-.44,.48-.44h.79c.27,0,.41,.16,.41,.48Z"/><path class="j" d="M10.93,7.58l-.1,.27c-.09,.24-.24,.36-.44,.36s-.35-.06-.44-.19c-.09-.13-.13-.24-.13-.34s.02-.2,.07-.3l1.09-2.39c.11-.24,.28-.36,.5-.36s.39,.12,.5,.36l1.09,2.39c.05,.1,.07,.2,.07,.3s-.04,.21-.13,.34c-.09,.12-.23,.19-.44,.19s-.36-.12-.45-.36l-.1-.27h-1.08Zm.77-.85l-.23-.62-.23,.62h.46Z"/><path class="j" d="M15.65,6.69l.52,.69c.08,.1,.12,.21,.12,.33s-.07,.23-.21,.34c-.14,.11-.27,.16-.39,.16s-.23-.07-.34-.21l-.85-1.14v.89c0,.31-.17,.46-.52,.46s-.52-.15-.52-.46v-2.65c0-.31,.17-.46,.52-.46h1.18c.29,0,.54,.11,.73,.34,.19,.23,.29,.47,.29,.72,0,.46-.18,.79-.53,.99Zm-1.15-1.33v.81h.3c.3,0,.44-.14,.44-.41s-.15-.41-.44-.41h-.3Z"/><path class="j" d="M18.49,5.48v2.28c0,.31-.17,.46-.52,.46s-.52-.15-.52-.46v-2.28h-.53c-.28,0-.42-.14-.42-.42s.14-.42,.42-.42h2.11c.28,0,.42,.14,.42,.42s-.14,.42-.42,.42h-.53Z"/><path class="j" d="M22.06,4.64c.35,0,.52,.15,.52,.46v2.65c0,.31-.17,.46-.52,.46s-.52-.15-.52-.46v-.91h-.71v.91c0,.31-.17,.46-.52,.46s-.52-.15-.52-.46v-2.65c0-.31,.17-.46,.52-.46s.52,.15,.52,.46v.89h.71v-.89c0-.31,.17-.46,.52-.46Z"/><path class="j" d="M25.92,7.24c0,.34-.14,.59-.43,.75-.29,.16-.61,.24-.98,.24s-.69-.08-.98-.24c-.29-.16-.43-.41-.43-.75v-2.14c0-.31,.17-.46,.52-.46s.52,.15,.52,.46v1.99c0,.2,.12,.3,.36,.3s.36-.1,.36-.3v-1.99c0-.31,.17-.46,.52-.46s.52,.15,.52,.46v2.14Z"/><path class="j" d="M28.64,6.69l.52,.69c.08,.1,.12,.21,.12,.33s-.07,.23-.21,.34c-.14,.11-.27,.16-.39,.16s-.23-.07-.34-.21l-.85-1.14v.89c0,.31-.17,.46-.52,.46s-.52-.15-.52-.46v-2.65c0-.31,.17-.46,.52-.46h1.18c.29,0,.54,.11,.73,.34,.19,.23,.29,.47,.29,.72,0,.46-.18,.79-.53,.99Zm-1.15-1.33v.81h.3c.3,0,.44-.14,.44-.41s-.15-.41-.44-.41h-.3Z"/><path class="j" d="M30.53,4.73c.1,.08,.16,.2,.17,.34,.01,.14-.04,.27-.17,.37-.13,.11-.27,.2-.42,.29-.16,.09-.29,.09-.41,0s-.14-.22-.07-.38c.07-.16,.15-.31,.23-.45,.08-.14,.19-.22,.32-.25,.13-.03,.25,0,.35,.08Z"/><path class="j" d="M32.43,8.22c-.34,0-.67-.05-.99-.16-.32-.11-.48-.3-.48-.58s.12-.42,.38-.42c.04,0,.18,.05,.44,.15,.26,.1,.48,.15,.67,.15s.28-.08,.28-.24c0-.1-.06-.19-.19-.26-.13-.07-.31-.14-.54-.22-.23-.08-.37-.13-.43-.17-.27-.18-.4-.44-.4-.78s.11-.62,.34-.83c.22-.21,.48-.31,.77-.31s.56,.03,.78,.1c.41,.13,.58,.32,.5,.58-.08,.25-.23,.37-.44,.36-.02,0-.12-.04-.32-.11s-.36-.11-.51-.11-.22,.07-.22,.22c0,.09,.06,.17,.19,.24,.13,.07,.3,.14,.53,.22,.23,.08,.38,.14,.44,.18,.27,.18,.41,.46,.41,.82s-.12,.65-.35,.86c-.22,.21-.51,.31-.84,.31Z"/></g><path class="i" d="M34.03,3.91s.09,.05,.12,.09c.03,.04,.05,.09,.06,.15,0,.06,0,.11-.02,.15-.02,.05-.05,.09-.09,.12-.04,.03-.09,.05-.15,.06-.06,0-.11,0-.16-.02-.05-.02-.09-.05-.12-.09-.03-.04-.05-.09-.06-.15,0-.06,0-.11,.02-.16,.02-.05,.05-.09,.09-.12,.04-.03,.09-.05,.15-.06,.06,0,.11,0,.16,.02Zm.06,.42s.05-.1,.04-.17c0-.07-.04-.12-.08-.16-.05-.04-.1-.05-.17-.04s-.12,.04-.15,.08c-.03,.05-.05,.1-.04,.17,0,.07,.04,.12,.08,.15,.04,.04,.1,.05,.17,.04s.12-.04,.15-.08Zm-.06-.16s-.02,.03-.04,.04l.09,.11h-.11l-.07-.08h0v.11h-.08l-.04-.29,.15-.02s.06,0,.08,.02c.02,.02,.03,.04,.04,.07,0,.02,0,.04,0,.05Zm-.15,0h.04s.01,0,.02-.01c0,0,0,0,0-.02,0-.01,0-.02-.03-.02h-.04v.05Z"/><path class="j" d="M11.15,9.04h12c0,.79-.64,1.42-1.42,1.42H9.73c0-.79,.64-1.42,1.42-1.42Z"/><text class="h" transform="translate(11.19 10.14)"><tspan class="d" x="0" y="0">P</tspan><tspan class="e" x="2.42" y="0">I</tspan><tspan class="k" x="4.49" y="0">ZZ</tspan><tspan class="g" x="9.27" y="0">A</tspan></text><path class="j" d="M11.15,9.04h12c0,.79-.64,1.42-1.42,1.42H9.73c0-.79,.64-1.42,1.42-1.42Z"/><g><path class="i" d="M11.8,9.75s-.05,.07-.09,.09-.09,.03-.15,.03h-.11v.27h-.18v-.75h.3c.06,0,.11,.01,.15,.03,.04,.02,.07,.05,.09,.09,.02,.04,.03,.08,.03,.12,0,.04,0,.08-.03,.12Zm-.18-.05s.03-.04,.03-.07,0-.05-.03-.07c-.02-.02-.04-.02-.08-.02h-.1v.19h.1s.06,0,.08-.02Z"/><path class="i" d="M13.85,9.39v.75h-.18v-.75h.18Z"/><path class="i" d="M15.94,9.99h.32v.15h-.53v-.14l.32-.46h-.32v-.15h.53v.14l-.32,.46Z"/><path class="i" d="M18.33,9.99h.32v.15h-.53v-.14l.32-.46h-.32v-.15h.53v.14l-.32,.46Z"/><path class="i" d="M21,10.01h-.28l-.04,.13h-.19l.27-.75h.21l.27,.75h-.19l-.04-.13Zm-.05-.14l-.09-.28-.09,.28h.19Z"/></g></g></g></svg>