<?xml version="1.0" encoding="UTF-8"?><svg xmlns="http://www.w3.org/2000/svg" viewBox="0 0 11.15 13.99"><defs><style>.d{fill:#feb100;}.e{fill:#dd3022;}.f{fill:#f5ffff;}</style></defs><g id="a"/><g id="b"><g id="c"><g><path class="d" d="M6.45,4.7c-1.33,.68-2.47,1.59-3.42,2.73-.03,.04-.06,.08-.1,.12-.11,.13-.13,.14-.27,.04-.86-.66-1.72-1.32-2.57-1.99-.05-.04-.07-.1-.1-.15,.05-.03,.1-.08,.16-.1,.7-.17,1.4-.33,2.1-.51,.15-.04,.23,.02,.31,.13,.31,.37,.7,.5,1.17,.38,.71-.19,1.03-1.11,.56-1.67-.21-.24-.2-.43-.08-.7,.19-.43,.35-.88,.53-1.32,.08-.2,.12-.22,.33-.16,.53,.15,1.06,.3,1.6,.44,.14,.04,.21,.1,.22,.25,.08,.68,.77,1.07,1.39,.89,.51-.15,.85-.68,.76-1.22,0-.05-.02-.1-.03-.15-.05-.12,0-.2,.09-.28,.4-.33,.8-.66,1.19-.98,.15-.12,.3-.25,.46-.37,.05-.04,.12-.05,.19-.08,.02,.06,.06,.13,.06,.19,.01,.73,.02,1.47,.03,2.2,0,.33,0,.67,.01,1,0,.2,0,.21-.21,.21-1.08,.03-2.14,.23-3.16,.59-.41,.15-.81,.33-1.21,.49Z"/><path class="f" d="M11.08,7.65c-.57-.22-1.02-.13-1.32,.27-.28,.37-.29,.86-.02,1.24,.29,.4,.77,.5,1.36,.28v1.1c-.56,.21-.84,.56-.84,1.05,0,.48,.29,.82,.87,1.01,0,.19,0,.4,.01,.6,0,.22,0,.44,0,.65,0,.05-.02,.14-.05,.15-.05,.01-.13,0-.17-.04-.41-.31-.82-.63-1.23-.94-.71-.55-1.42-1.09-2.12-1.64-.05-.03-.09-.07-.13-.11,.62-.36,.84-.77,.69-1.3-.12-.43-.55-.73-1.01-.72-.53,.01-.87,.34-1.02,1.01-.32-.25-.64-.49-.95-.73-.1-.08-.1-.12,0-.24,.22-.24,.43-.5,.67-.72,1.4-1.31,3.05-2.02,4.96-2.13,.08,0,.17,0,.28,0l.02,1.24Z"/><path class="e" d="M4.28,8.82l-.69-.53c.06-.08,.1-.15,.15-.21,.7-.85,1.53-1.57,2.47-2.14,1.38-.83,2.87-1.28,4.47-1.37,.41-.02,.37-.04,.37,.35,0,.15,0,.3,0,.46,0,.02-.01,.04-.03,.08-2.74,.11-4.98,1.23-6.74,3.38Z"/></g></g></g></svg>