<?xml version="1.0" encoding="utf-8"?>
<!-- Generator: Adobe Illustrator 26.2.1, SVG Export Plug-In . SVG Version: 6.00 Build 0)  -->
<svg version="1.1" id="Capa_1" xmlns="http://www.w3.org/2000/svg" xmlns:xlink="http://www.w3.org/1999/xlink" x="0px" y="0px"
	 viewBox="0 0 49 49" style="enable-background:new 0 0 49 49;" xml:space="preserve">
<style type="text/css">
	.st0{opacity:0.15;}
	.st1{fill:#FFFFFF;}
</style>
<g id="a">
</g>
<g id="b" class="st0">
	<g id="c">
		<g>
			<path class="st1" d="M49,11.4c-0.1,0-0.1-0.1-0.2-0.1c-0.4-0.4-0.8-0.7-1.1-1.1c-0.2-0.1-0.3-0.3-0.4-0.5l0.8-1.1
				c0-0.1-0.1-0.1-0.1-0.1c-0.1-0.1-0.1-0.3,0-0.4s0.3-0.1,0.4,0c0.1,0.1,0.1,0.3,0,0.4c0,0-0.1,0.1-0.1,0.1c0,0.2,0,0.4,0.1,0.6
				s0.3,0.3,0.5,0.2c0.1,0,0.1,0,0.2-0.1C49,9.2,49,11.4,49,11.4z"/>
			<path class="st1" d="M49,31c-0.1,0-0.1-0.1-0.2-0.1c-0.4-0.4-0.8-0.7-1.1-1.1c-0.2-0.1-0.3-0.3-0.4-0.5l0.8-1.1
				c0,0-0.1-0.1-0.1-0.1c-0.1-0.1-0.1-0.3,0-0.4s0.3-0.1,0.4,0c0.1,0.1,0.1,0.3,0,0.4c0,0-0.1,0.1-0.1,0.1c0,0.2,0,0.4,0.1,0.6
				s0.3,0.3,0.5,0.2c0.1,0,0.1,0,0.2-0.1C49,28.8,49,31,49,31z"/>
			<path class="st1" d="M49,40.8c-0.1,0-0.1-0.1-0.2-0.1c-0.4-0.4-0.8-0.7-1.1-1.1c-0.2-0.2-0.3-0.3-0.4-0.5l0.8-1.2
				c0,0-0.1-0.1-0.1-0.1c-0.1-0.2-0.1-0.3,0-0.4c0.1-0.1,0.3-0.1,0.4,0c0.1,0.1,0.1,0.3,0,0.4c0,0-0.1,0.1-0.1,0.1
				c0,0.2,0,0.4,0.1,0.6c0.1,0.2,0.3,0.3,0.5,0.2c0.1,0,0.1,0,0.2-0.1V40.8z"/>
			<path class="st1" d="M49,21.2c-0.1,0-0.1-0.1-0.2-0.1c-0.4-0.4-0.8-0.7-1.1-1.1c-0.2-0.1-0.3-0.3-0.4-0.5l0.8-1.1
				c0,0-0.1-0.1-0.1-0.1c-0.1-0.1-0.1-0.3,0-0.4s0.3-0.1,0.4,0c0.1,0.1,0.1,0.3,0,0.4c0,0-0.1,0.1-0.1,0.1c0,0.2,0,0.4,0.1,0.6
				s0.3,0.3,0.5,0.2c0.1,0,0.1,0,0.2-0.1C49,19,49,21.2,49,21.2z"/>
			<path class="st1" d="M39.8,0c0,0.1,0,0.2,0,0.2c0,0.2,0,0.3,0.2,0.4c0.2,0.1,0.3,0.1,0.5,0.1c0.1,0,0.1-0.1,0.2-0.1
				c0.2-0.2,0.4-0.1,0.5,0.1c0.1,0.1,0,0.3-0.1,0.4c-0.1,0.1-0.3,0.1-0.4,0c0,0-0.1-0.1-0.2-0.1l-1.2,0.8c-0.2-0.1-0.3-0.3-0.5-0.4
				C38.5,0.9,38,0.4,37.6,0C38.3,0,39,0,39.8,0z"/>
			<path class="st1" d="M30,0c0,0.1,0,0.2,0,0.2c0,0.2,0,0.3,0.2,0.4c0.2,0.1,0.3,0.1,0.5,0.1c0.1,0,0.1-0.1,0.2-0.1
				c0.2-0.2,0.4-0.1,0.5,0.1c0.1,0.1,0,0.3-0.1,0.4c-0.1,0.1-0.3,0.1-0.4,0c0,0-0.1-0.1-0.1-0.1l-1.2,0.8c-0.2-0.1-0.4-0.3-0.5-0.4
				c-0.4-0.4-0.9-0.9-1.3-1.3C28.5,0,29.2,0,30,0L30,0z"/>
			<path class="st1" d="M20.1,0c0,0.1,0,0.2,0,0.2c0,0.2,0,0.3,0.2,0.4c0.2,0.1,0.3,0.1,0.5,0.1c0.1,0,0.1-0.1,0.2-0.1
				c0.2-0.2,0.4-0.1,0.5,0.1c0.1,0.1,0,0.3-0.1,0.4c-0.1,0.1-0.3,0.1-0.4,0C21.1,1,21,1,21,0.9l-1.2,0.8c-0.2-0.1-0.4-0.3-0.5-0.4
				C18.9,0.9,18.4,0.4,18,0C18.7,0,19.4,0,20.1,0z"/>
			<path class="st1" d="M10.3,0c0,0.1,0,0.2,0,0.2c0,0.2,0,0.3,0.2,0.4c0.2,0.1,0.3,0.1,0.5,0.1c0.1,0,0.1-0.1,0.2-0.1
				c0.2-0.2,0.4-0.1,0.5,0.1c0.1,0.1,0,0.3-0.1,0.4c-0.1,0.1-0.3,0.1-0.4,0c-0.1,0-0.1-0.1-0.1-0.1L10,1.7C9.8,1.6,9.7,1.4,9.5,1.3
				C9.1,0.9,8.6,0.4,8.2,0H10.3L10.3,0z"/>
			<path class="st1" d="M18,49l-0.2-0.2l0.8-1.1c0,0-0.1-0.1-0.1-0.2c-0.1-0.1-0.1-0.3,0-0.4c0.1-0.1,0.3-0.1,0.4,0
				c0.1,0.1,0.1,0.3,0,0.4c-0.1,0.1-0.2,0.2-0.1,0.3c0,0.2,0,0.4,0.1,0.5c0.1,0.1,0.2,0.1,0.4,0.1c0.3-0.1,0.6-0.2,1-0.4
				c0-0.1,0-0.3,0.1-0.4c0.1,0,0.1-0.1,0.2-0.1c0.2,0,0.4,0.2,0.4,0.4c0,0.2-0.2,0.3-0.5,0.3L20.2,49L18,49L18,49z"/>
			<path class="st1" d="M8.2,49l-0.2-0.2l0.8-1.1c-0.1,0-0.1-0.1-0.1-0.2c-0.1-0.1-0.1-0.3,0-0.4c0.1-0.1,0.3-0.1,0.4,0
				c0.1,0.1,0.1,0.3,0,0.4c-0.1,0.1-0.2,0.2-0.1,0.3c0,0.2,0,0.4,0.1,0.5c0.1,0.1,0.2,0.1,0.4,0.1c0.3-0.1,0.6-0.2,1-0.4
				c0-0.1,0-0.3,0.1-0.4c0.1,0,0.1-0.1,0.2-0.1c0.2,0,0.4,0.2,0.4,0.4c0,0.2-0.2,0.3-0.5,0.3L10.4,49L8.2,49L8.2,49z"/>
			<path class="st1" d="M27.9,49l-0.2-0.2l0.8-1.1c0,0-0.1-0.1-0.1-0.2c-0.1-0.1-0.1-0.3,0-0.4c0.1-0.1,0.3-0.1,0.4,0
				c0.1,0.1,0.1,0.3,0,0.4c-0.1,0.1-0.2,0.2-0.1,0.3c0,0.2,0,0.4,0.1,0.5c0.1,0.1,0.2,0.1,0.4,0.1c0.3-0.1,0.6-0.2,1-0.4
				c0-0.1,0-0.3,0.1-0.4c0.1,0,0.1-0.1,0.2-0.1c0.2,0,0.4,0.2,0.4,0.4c0,0.2-0.2,0.3-0.5,0.3L30,49L27.9,49L27.9,49z"/>
			<path class="st1" d="M37.7,49l-0.2-0.2l0.8-1.1c0,0-0.1-0.1-0.1-0.2c-0.1-0.1-0.1-0.3,0-0.4c0.1-0.1,0.3-0.1,0.4,0
				c0.1,0.1,0.1,0.3,0,0.4c-0.1,0.1-0.2,0.2-0.2,0.3c0,0.2,0,0.4,0.2,0.5c0.1,0.1,0.2,0.1,0.3,0.1c0.3-0.1,0.6-0.2,1-0.4
				c0-0.1,0-0.3,0.1-0.4c0.1,0,0.1-0.1,0.2-0.1c0.2,0,0.4,0.2,0.3,0.4c0,0.2-0.2,0.3-0.5,0.3L39.8,49L37.7,49L37.7,49z"/>
			<path class="st1" d="M0,38.6l0.7-0.3c0-0.3,0.1-0.5,0.3-0.5c0.2,0,0.4,0.2,0.4,0.4c0,0.2-0.2,0.3-0.5,0.3
				c-0.2,0.3-0.3,0.6-0.4,0.9c-0.1,0.2,0,0.3,0.2,0.5C0.9,40,1.1,40,1.2,40c0.1,0,0.1-0.1,0.2-0.1c0.1-0.2,0.4-0.2,0.5,0
				C2,40,2,40.2,1.9,40.3c-0.1,0.1-0.3,0.1-0.4,0c0,0-0.1-0.1-0.1-0.1l-1.2,0.8L0,40.8V38.6z"/>
			<path class="st1" d="M0,28.8l0.7-0.3c0-0.3,0.1-0.5,0.3-0.5c0.2,0,0.4,0.2,0.4,0.4c0,0.2-0.2,0.3-0.5,0.3
				c-0.2,0.3-0.3,0.6-0.4,0.9c-0.1,0.2,0,0.3,0.2,0.5c0.2,0.1,0.3,0.1,0.5,0.1c0.1,0,0.1-0.1,0.2-0.1c0.1-0.2,0.4-0.1,0.5,0
				c0.1,0.1,0,0.3-0.1,0.4c-0.1,0.1-0.3,0.1-0.4,0c0,0-0.1-0.1-0.1-0.1l-1.2,0.8L0,31C0,30.3,0,29.5,0,28.8L0,28.8z"/>
			<path class="st1" d="M0,9.2l0.7-0.3c0-0.3,0.1-0.5,0.3-0.5c0.2,0,0.4,0.2,0.4,0.4c0,0.2-0.2,0.3-0.5,0.3C0.8,9.4,0.6,9.7,0.5,10
				c-0.1,0.2,0,0.3,0.2,0.4c0.2,0.1,0.3,0.1,0.5,0.1c0.1,0,0.1-0.1,0.2-0.1c0.1-0.2,0.4-0.1,0.5,0c0.1,0.1,0,0.3-0.1,0.4
				c-0.1,0.1-0.3,0.1-0.4,0c0,0-0.1-0.1-0.1-0.1l-1.2,0.8L0,11.4V9.2L0,9.2z"/>
			<path class="st1" d="M0,19l0.7-0.3c0-0.3,0.1-0.5,0.3-0.5c0.2,0,0.4,0.2,0.4,0.4c0,0.2-0.2,0.3-0.5,0.3c-0.2,0.3-0.3,0.6-0.4,0.9
				c-0.1,0.2,0,0.3,0.2,0.5c0.2,0.1,0.3,0.1,0.5,0.1c0.1,0,0.1-0.1,0.2-0.1c0.1-0.2,0.4-0.1,0.5,0c0.1,0.1,0,0.3-0.1,0.4
				c-0.1,0.1-0.3,0.1-0.4,0c0,0-0.1-0.1-0.1-0.1l-1.2,0.8L0,21.2V19z"/>
			<path class="st1" d="M47.5,49l-0.2-0.2l0.8-1.1c0,0-0.1-0.1-0.1-0.2c-0.1-0.1-0.1-0.3,0-0.4c0.1-0.1,0.3-0.1,0.4,0
				c0.1,0.1,0.1,0.3,0,0.4c-0.1,0.1-0.2,0.1-0.2,0.2c0,0.2,0,0.4,0.1,0.6c0.1,0.1,0.2,0.2,0.3,0.2c0.1,0,0.2,0,0.3-0.1V49L47.5,49
				L47.5,49z"/>
			<path class="st1" d="M0.5,0c0,0.1,0,0.1,0,0.2c0,0.2,0,0.3,0.2,0.4c0.2,0.1,0.3,0.1,0.5,0.1c0.1,0,0.1-0.1,0.2-0.1
				C1.6,0.5,1.9,0.5,2,0.7C2,0.8,2,1,1.9,1.1c-0.1,0.1-0.3,0.1-0.4,0c0,0-0.1-0.1-0.1-0.2L0.2,1.7L0,1.6V0H0.5z"/>
			<path class="st1" d="M47.4,0H49v1.6c0,0-0.1,0-0.1-0.1C48.4,1,47.9,0.5,47.4,0z"/>
			<path class="st1" d="M0,48.4l0.7-0.3c0-0.3,0.1-0.5,0.3-0.5c0.2,0,0.4,0.2,0.4,0.4c0,0.2-0.2,0.3-0.5,0.3
				c-0.1,0.2-0.2,0.5-0.3,0.7H0C0,49,0,48.4,0,48.4z"/>
			<path class="st1" d="M37.4,0c0,0,0,0.1,0.1,0.1c0.5,0.5,1.1,1.1,1.6,1.6c0,0,0.1,0.1,0.2,0.1L39.1,2c-0.3-0.3-0.5-0.5-0.8-0.8
				c-0.2-0.2-0.3-0.3-0.5-0.5c-0.2-0.2-0.4-0.4-0.6-0.6c-0.1-0.1-0.1-0.1,0-0.2L37.4,0L37.4,0z"/>
			<path class="st1" d="M49,11.8c-0.1,0-0.2,0-0.2-0.1c-0.3-0.4-0.7-0.7-1-1c-0.2-0.2-0.5-0.5-0.8-0.8l0.1-0.1
				c0.1,0,0.1,0.1,0.1,0.1c0,0,0,0,0,0c0.6,0.6,1.2,1.2,1.8,1.8c0,0,0,0,0,0L49,11.8L49,11.8z"/>
			<path class="st1" d="M49,21.6c-0.1,0-0.2,0-0.2-0.1c-0.3-0.4-0.7-0.7-1-1c-0.2-0.2-0.5-0.5-0.8-0.8l0.1-0.1l0,0c0,0,0,0,0,0
				c0,0,0,0,0,0c0.6,0.6,1.2,1.2,1.8,1.8c0,0,0,0,0,0L49,21.6L49,21.6z"/>
			<path class="st1" d="M17.8,0c0,0,0,0.1,0.1,0.1c0.5,0.5,1.1,1.1,1.6,1.6c0,0,0.1,0.1,0.1,0.1L19.5,2c-0.3-0.3-0.5-0.5-0.8-0.8
				c-0.1-0.2-0.3-0.3-0.5-0.5c-0.2-0.2-0.4-0.4-0.6-0.6c-0.1-0.1-0.1-0.1,0-0.2L17.8,0L17.8,0z"/>
			<path class="st1" d="M8,0c0,0,0,0.1,0.1,0.1c0.5,0.5,1.1,1.1,1.6,1.6c0,0,0.1,0.1,0.1,0.1L9.7,2C9.4,1.7,9.2,1.5,8.9,1.2
				C8.8,1.1,8.6,0.9,8.5,0.8C8.3,0.6,8.1,0.4,7.9,0.2C7.8,0.1,7.8,0.1,7.8,0L8,0L8,0z"/>
			<path class="st1" d="M49,41.2c-0.1,0-0.2,0-0.2-0.1c-0.3-0.4-0.7-0.7-1-1.1c-0.2-0.2-0.5-0.5-0.8-0.8l0.1-0.1
				c0.1,0,0.1,0,0.1,0.1c0,0,0,0,0,0c0.6,0.6,1.2,1.2,1.8,1.8c0,0,0,0,0,0C49,41,49,41.2,49,41.2z"/>
			<path class="st1" d="M49,31.4c-0.1,0-0.2,0-0.2-0.1c-0.3-0.4-0.7-0.7-1-1.1c-0.2-0.2-0.5-0.5-0.8-0.8l0.1-0.1
				c0.1,0,0.1,0,0.1,0.1c0,0,0,0,0,0c0.6,0.6,1.2,1.2,1.8,1.8c0,0,0,0,0,0C49,31.2,49,31.4,49,31.4z"/>
			<path class="st1" d="M27.6,0c0,0,0,0.1,0.1,0.1c0.5,0.5,1.1,1.1,1.6,1.6c0,0,0.1,0.1,0.1,0.1L29.3,2c-0.3-0.3-0.5-0.5-0.8-0.8
				c-0.1-0.2-0.3-0.3-0.5-0.5c-0.2-0.2-0.4-0.4-0.6-0.6c-0.1-0.1-0.1-0.1,0-0.2L27.6,0L27.6,0z"/>
			<path class="st1" d="M49,2c-0.1,0-0.2,0-0.2-0.1c-0.3-0.3-0.6-0.6-0.9-0.9c-0.2-0.2-0.5-0.5-0.8-0.7c-0.1-0.1-0.1-0.1,0-0.2h0.2
				c0,0,0,0.1,0.1,0.1c0.5,0.5,1.1,1.1,1.6,1.6c0,0,0.1,0.1,0.1,0.1L49,2L49,2z"/>
			<path class="st1" d="M43.1,13.3c-0.1-0.1-0.1-0.1-0.1-0.1c-0.1-0.1-0.1-0.3,0-0.4c0.1-0.1,0.3-0.1,0.4,0c0.1,0.1,0.1,0.3,0,0.4
				c-0.1,0.1-0.2,0.2-0.2,0.3c0,0.2,0,0.4,0.2,0.5c0.1,0.1,0.2,0.1,0.3,0.1c0.4-0.1,0.7-0.2,1-0.4c0-0.3,0.1-0.5,0.3-0.5
				c0.2,0,0.3,0.2,0.3,0.4c0,0.2-0.2,0.3-0.5,0.3c-0.2,0.3-0.3,0.7-0.4,1c0,0.2,0,0.3,0.2,0.4c0.2,0.1,0.3,0.1,0.5,0.1
				c0.1,0,0.2-0.1,0.2-0.1c0.2-0.2,0.4-0.1,0.5,0.1c0.1,0.1,0,0.3-0.1,0.4c-0.1,0.1-0.3,0.1-0.4,0c0,0-0.1-0.1-0.2-0.1l-1.2,0.8
				c-0.7-0.6-1.4-1.3-2-2L43.1,13.3L43.1,13.3z"/>
			<path class="st1" d="M35,13.8c0-0.3,0.1-0.4,0.3-0.5c0.2,0,0.4,0.2,0.4,0.4c0,0.2-0.2,0.3-0.5,0.3c-0.2,0.3-0.3,0.6-0.4,1
				c0,0.2,0,0.4,0.2,0.5c0.2,0.1,0.3,0.1,0.5,0.1c0.1,0,0.2-0.1,0.2-0.1c0.2-0.2,0.4-0.2,0.5,0c0.1,0.1,0,0.3-0.1,0.4
				c-0.1,0.1-0.3,0.1-0.4,0c0,0-0.1-0.1-0.1-0.1l-1.2,0.8c-0.7-0.6-1.4-1.3-2-2l0.8-1.2c0-0.1-0.1-0.1-0.1-0.1
				c-0.1-0.1-0.1-0.3,0-0.4c0.1-0.1,0.3-0.1,0.4,0c0.1,0.1,0.1,0.3,0,0.4c-0.1,0.1-0.2,0.1-0.2,0.2c0,0.2,0,0.4,0.1,0.6
				c0.1,0.1,0.2,0.2,0.4,0.1C34.4,14.1,34.7,14,35,13.8L35,13.8z"/>
			<path class="st1" d="M45.5,45.1l-1.2,0.8c-0.7-0.6-1.4-1.3-2-2l0.8-1.2c0,0-0.1-0.1-0.1-0.1c-0.1-0.2-0.1-0.3,0-0.4
				c0.1-0.1,0.3-0.1,0.4,0s0.1,0.3,0,0.4c-0.1,0.1-0.2,0.1-0.2,0.2c0,0.2,0,0.4,0.1,0.6c0.1,0.1,0.2,0.2,0.4,0.1
				c0.3-0.1,0.7-0.2,1-0.4c0-0.1,0-0.3,0.1-0.4c0.1,0,0.1-0.1,0.2-0.1c0.2,0,0.4,0.2,0.4,0.4c0,0.2-0.2,0.3-0.5,0.3
				c-0.2,0.3-0.3,0.6-0.4,1c0,0.2,0,0.4,0.2,0.5c0.2,0.1,0.3,0.1,0.5,0.1c0.1,0,0.2,0,0.2-0.1c0.2-0.2,0.4-0.2,0.5,0
				c0.1,0.1,0,0.3-0.1,0.4c-0.1,0.1-0.3,0.1-0.4,0C45.6,45.2,45.5,45.2,45.5,45.1L45.5,45.1z"/>
			<path class="st1" d="M32.5,43.9l0.8-1.2c0,0-0.1-0.1-0.1-0.1c-0.1-0.2-0.1-0.3,0-0.4c0.1-0.1,0.3-0.1,0.4,0
				c0.1,0.1,0.1,0.3,0,0.4c0,0-0.1,0.1-0.1,0.1c0,0.2,0,0.4,0.1,0.6c0.1,0.2,0.2,0.3,0.5,0.2c0.3-0.1,0.7-0.2,1-0.4
				c0-0.1,0-0.3,0.1-0.4c0.1,0,0.2-0.1,0.2-0.1c0.2,0,0.3,0.2,0.3,0.4c0,0.2-0.2,0.3-0.5,0.3c-0.2,0.3-0.3,0.6-0.4,1
				c0,0.1,0,0.3,0.1,0.4c0.2,0.2,0.4,0.2,0.7,0.2c0.1,0,0.1-0.1,0.2-0.1c0.2-0.2,0.4-0.1,0.5,0.1c0.1,0.1,0,0.3-0.1,0.4
				c-0.1,0.1-0.3,0.1-0.4,0c0,0-0.1-0.1-0.1-0.1l-1.2,0.8C33.8,45.3,33.2,44.6,32.5,43.9L32.5,43.9z"/>
			<path class="st1" d="M23.5,42.8c-0.1-0.1-0.1-0.1-0.1-0.2c-0.1-0.1-0.1-0.3,0-0.4c0.1-0.1,0.3-0.1,0.4,0c0.1,0.1,0.1,0.3,0,0.4
				c-0.1,0.1-0.2,0.1-0.2,0.2c0,0.2,0,0.4,0.1,0.5c0.1,0.2,0.2,0.2,0.4,0.2c0.4-0.1,0.7-0.2,1-0.4c0-0.3,0.1-0.5,0.3-0.5
				c0.2,0,0.4,0.2,0.4,0.4c0,0.2-0.2,0.3-0.5,0.3c-0.2,0.3-0.3,0.6-0.4,1c0,0.2,0,0.3,0.2,0.4c0.2,0.1,0.3,0.1,0.5,0.1
				c0.1,0,0.1-0.1,0.2-0.1c0.1-0.2,0.4-0.1,0.5,0c0.1,0.1,0,0.3-0.1,0.4c-0.1,0.1-0.3,0.1-0.4,0c0,0-0.1-0.1-0.1-0.1l-1.2,0.8
				c-0.7-0.6-1.4-1.3-2-2C22.7,43.9,23.5,42.8,23.5,42.8z"/>
			<path class="st1" d="M15.4,43.2c0-0.3,0.1-0.5,0.3-0.5c0.2,0,0.4,0.2,0.4,0.4c0,0.2-0.2,0.3-0.5,0.3c-0.2,0.3-0.3,0.7-0.4,1
				c0,0.2,0,0.3,0.2,0.4c0.2,0.1,0.3,0.1,0.5,0.1c0.1,0,0.2-0.1,0.2-0.1c0.2-0.2,0.4-0.2,0.5,0c0.1,0.1,0,0.3-0.1,0.4
				c-0.1,0.1-0.3,0.1-0.4,0c0,0-0.1-0.1-0.1-0.1l-1.2,0.8c-0.7-0.6-1.4-1.3-2-2l0.8-1.2c0,0-0.1-0.1-0.1-0.2c-0.1-0.1-0.1-0.3,0-0.4
				c0.1-0.1,0.3-0.1,0.4,0s0.1,0.3,0,0.4c-0.1,0.1-0.2,0.2-0.1,0.3c0,0.2,0,0.4,0.1,0.5c0.1,0.1,0.2,0.1,0.4,0.1
				C14.8,43.5,15.1,43.4,15.4,43.2L15.4,43.2z"/>
			<path class="st1" d="M5.1,45.9c-0.7-0.6-1.4-1.3-2-2l0.8-1.2c0,0-0.1-0.1-0.1-0.1c-0.1-0.1-0.1-0.3,0-0.4c0.1-0.1,0.3-0.1,0.4,0
				c0.1,0.1,0.1,0.3,0,0.4c-0.1,0.1-0.2,0.1-0.2,0.2c0,0.2,0,0.4,0.1,0.6c0.1,0.1,0.2,0.2,0.4,0.1c0.4-0.1,0.7-0.2,1-0.4
				c0-0.1,0-0.3,0.1-0.4c0.1,0,0.1-0.1,0.2-0.1c0.2,0,0.4,0.2,0.3,0.4c0,0.2-0.2,0.3-0.5,0.3c-0.2,0.3-0.3,0.6-0.4,1
				c0,0.2,0,0.4,0.2,0.5c0.2,0.1,0.3,0.1,0.5,0.1c0.1,0,0.2,0,0.2-0.1c0.2-0.2,0.4-0.2,0.5,0c0.1,0.1,0,0.3-0.1,0.4
				c-0.1,0.1-0.3,0.1-0.4,0c0,0-0.1-0.1-0.1-0.1L5.1,45.9L5.1,45.9z"/>
			<path class="st1" d="M25.4,14c-0.2,0.3-0.3,0.6-0.4,1c0,0.2,0,0.4,0.2,0.4c0.1,0.1,0.3,0.1,0.5,0.1c0.1,0,0.1-0.1,0.2-0.1
				c0.2-0.2,0.4-0.1,0.5,0.1c0.1,0.1,0,0.3-0.1,0.4c-0.1,0.1-0.3,0.1-0.4,0c0,0-0.1-0.1-0.1-0.1l-1.2,0.8c-0.7-0.6-1.4-1.3-2-2
				l0.8-1.2c0-0.1-0.1-0.1-0.1-0.1c-0.1-0.1-0.1-0.3,0-0.4c0.1-0.1,0.3-0.1,0.4,0c0.1,0.1,0.1,0.3,0,0.4c-0.1,0.1-0.2,0.2-0.1,0.3
				c0,0.2,0,0.4,0.1,0.5c0.1,0.1,0.2,0.1,0.4,0.1c0.4-0.1,0.7-0.2,1-0.4c0-0.3,0.1-0.5,0.3-0.5c0.2,0,0.4,0.2,0.4,0.4
				C25.9,13.9,25.7,14,25.4,14L25.4,14z"/>
			<path class="st1" d="M16.1,15.7l-1.2,0.8c-0.7-0.6-1.4-1.3-2-2l0.8-1.1c-0.1-0.1-0.1-0.1-0.1-0.1c-0.1-0.1-0.1-0.3,0.1-0.4
				c0.1-0.1,0.3-0.1,0.4,0c0.1,0.1,0.1,0.3,0,0.4c-0.1,0.1-0.2,0.1-0.2,0.2c0,0.2,0,0.4,0.1,0.5c0.1,0.2,0.2,0.2,0.4,0.2
				c0.3-0.1,0.7-0.2,1-0.4c0-0.3,0.1-0.4,0.3-0.5c0.2,0,0.4,0.2,0.4,0.4c0,0.2-0.2,0.3-0.5,0.3c-0.2,0.3-0.3,0.6-0.4,1
				c0,0.2,0,0.3,0.2,0.4c0.2,0.1,0.4,0.1,0.5,0.1c0.1,0,0.1-0.1,0.2-0.1c0.1-0.2,0.4-0.1,0.5,0.1c0.1,0.1,0,0.3-0.1,0.4
				c-0.1,0.1-0.3,0.1-0.4,0C16.2,15.8,16.1,15.7,16.1,15.7L16.1,15.7z"/>
			<path class="st1" d="M5.6,13.8c0-0.3,0.1-0.5,0.3-0.5c0.2,0,0.4,0.2,0.4,0.4c0,0.2-0.2,0.3-0.5,0.3c-0.2,0.3-0.3,0.6-0.4,1
				c0,0.2,0,0.3,0.2,0.4c0.2,0.1,0.3,0.1,0.5,0.1c0.1,0,0.2,0,0.2-0.1c0.1-0.1,0.2-0.1,0.2-0.1c0.2,0,0.3,0.1,0.3,0.2
				c0,0.1,0,0.3-0.1,0.3c-0.1,0.1-0.3,0.1-0.4,0c0,0-0.1-0.1-0.1-0.1l-1.2,0.8c-0.7-0.6-1.4-1.3-2-2l0.8-1.1c0,0-0.1-0.1-0.1-0.1
				c-0.1-0.1-0.1-0.3,0-0.4c0.1-0.1,0.3-0.1,0.4,0c0.1,0.1,0.1,0.3,0,0.4c-0.1,0.1-0.2,0.2-0.1,0.4c0,0.2,0,0.4,0.2,0.5
				c0.1,0.1,0.2,0.1,0.3,0.1C5,14.1,5.3,14,5.6,13.8L5.6,13.8z"/>
			<path class="st1" d="M25.2,23.6c0-0.3,0.1-0.5,0.3-0.5c0.2,0,0.4,0.2,0.4,0.4c0,0.2-0.2,0.3-0.5,0.3c-0.2,0.3-0.3,0.6-0.4,1
				c0,0.2,0,0.4,0.2,0.5c0.1,0.1,0.3,0.1,0.5,0.1c0.1,0,0.2,0,0.2-0.1c0.2-0.2,0.4-0.1,0.5,0c0.1,0.1,0,0.3-0.1,0.4
				c-0.1,0.1-0.3,0.1-0.4,0c0,0-0.1-0.1-0.1-0.1l-1.2,0.8c-0.7-0.6-1.4-1.3-2-2l0.8-1.1c0,0-0.1-0.1-0.1-0.1c-0.1-0.1-0.1-0.3,0-0.4
				c0.1-0.1,0.3-0.1,0.4,0s0.1,0.3,0,0.4c-0.1,0.1-0.2,0.2-0.1,0.3c0,0.2,0,0.4,0.1,0.5C24,24,24.1,24,24.2,24
				C24.6,23.9,24.9,23.8,25.2,23.6L25.2,23.6z"/>
			<path class="st1" d="M35,33.4c0-0.3,0.1-0.5,0.3-0.5c0.2,0,0.4,0.2,0.4,0.4c0,0.2-0.2,0.3-0.5,0.3c-0.2,0.3-0.3,0.7-0.4,1
				c0,0.2,0,0.3,0.2,0.4c0.2,0.1,0.3,0.1,0.5,0.1c0.1,0,0.2-0.1,0.2-0.1c0.2-0.2,0.4-0.2,0.5,0.1c0.1,0.1,0,0.3-0.1,0.4
				c-0.1,0.1-0.3,0.1-0.4,0c0,0-0.1-0.1-0.2-0.1l-1.2,0.8c-0.7-0.6-1.4-1.3-2-2l0.8-1.2c0,0-0.1-0.1-0.1-0.2c-0.1-0.1-0.1-0.3,0-0.4
				c0.1-0.1,0.3-0.1,0.4,0s0.1,0.3,0,0.4c-0.1,0.1-0.2,0.2-0.2,0.3c0,0.2,0,0.4,0.2,0.5c0.1,0.1,0.2,0.1,0.3,0.1
				C34.4,33.7,34.7,33.6,35,33.4L35,33.4z"/>
			<path class="st1" d="M5.6,33.4c0-0.3,0.1-0.5,0.3-0.5c0.2,0,0.4,0.2,0.4,0.4c0,0.2-0.2,0.3-0.5,0.3c-0.2,0.3-0.3,0.7-0.4,1
				c0,0.2,0,0.3,0.2,0.4c0.2,0.1,0.3,0.1,0.5,0.1c0.1,0,0.2-0.1,0.2-0.1c0.2-0.2,0.4-0.2,0.5,0c0.1,0.1,0,0.3-0.1,0.4
				c-0.1,0.1-0.3,0.1-0.4,0c-0.1,0-0.1-0.1-0.2-0.1l-1.2,0.8c-0.7-0.6-1.4-1.3-2-2L3.9,33c0,0-0.1-0.1-0.1-0.2
				c-0.1-0.1-0.1-0.3,0-0.4c0.1-0.1,0.3-0.1,0.4,0s0.1,0.3,0,0.4c-0.1,0.1-0.2,0.2-0.2,0.3c0,0.2,0,0.4,0.2,0.5
				c0.1,0.1,0.2,0.1,0.3,0.1C5,33.7,5.3,33.6,5.6,33.4L5.6,33.4z"/>
			<path class="st1" d="M25.2,33.4c0-0.3,0.1-0.5,0.3-0.5c0.2,0,0.4,0.2,0.4,0.4c0,0.2-0.2,0.3-0.5,0.3c-0.2,0.3-0.3,0.7-0.4,1
				c0,0.2,0,0.3,0.2,0.4c0.2,0.1,0.4,0.1,0.5,0.1c0.1,0,0.1,0,0.2-0.1c0.1-0.1,0.1-0.1,0.2-0.1c0.2,0,0.3,0.1,0.3,0.2
				c0,0.1,0,0.3-0.1,0.3c-0.1,0.1-0.3,0.1-0.4,0c0,0-0.1-0.1-0.1-0.1l-1.2,0.8c-0.7-0.6-1.4-1.3-2-2l0.8-1.2c0,0-0.1-0.1-0.1-0.1
				c-0.1-0.1-0.1-0.3,0-0.4c0.1-0.1,0.3-0.1,0.4,0s0.1,0.3,0,0.4c-0.1,0.1-0.1,0.2-0.1,0.4c0,0.2,0,0.4,0.2,0.5
				c0.1,0.1,0.2,0.1,0.3,0.1C24.6,33.7,24.9,33.6,25.2,33.4L25.2,33.4z"/>
			<path class="st1" d="M16.1,25.5l-1.2,0.8c-0.7-0.6-1.4-1.3-2-2l0.8-1.2c0,0-0.1-0.1-0.1-0.1c-0.1-0.1-0.1-0.3,0-0.4
				s0.3-0.1,0.4,0s0.1,0.3,0,0.4s-0.1,0.2-0.1,0.4c0,0.2,0,0.4,0.2,0.5c0.1,0.1,0.2,0.1,0.3,0.1c0.3-0.1,0.7-0.2,1-0.4
				c0-0.3,0.1-0.5,0.3-0.5c0.2,0,0.4,0.2,0.4,0.4c0,0.2-0.2,0.3-0.5,0.3c-0.2,0.3-0.3,0.6-0.4,1c0,0.2,0,0.3,0.2,0.4
				c0.2,0.1,0.4,0.1,0.5,0.1c0.1,0,0.1,0,0.2-0.1c0.1-0.1,0.2-0.1,0.3-0.1c0.2,0,0.2,0.1,0.3,0.2c0,0.1,0,0.3-0.1,0.3
				s-0.3,0.1-0.4,0C16.2,25.6,16.1,25.6,16.1,25.5z"/>
			<path class="st1" d="M6.3,25.5l-1.2,0.8c-0.7-0.6-1.4-1.3-2-2l0.8-1.1c0-0.1-0.1-0.1-0.1-0.1c-0.1-0.1-0.1-0.3,0-0.4
				c0.1-0.1,0.3-0.1,0.4,0c0.1,0.1,0.1,0.3,0,0.4c-0.1,0.1-0.2,0.1-0.2,0.2c0,0.2,0,0.4,0.1,0.5C4.3,24,4.4,24,4.6,24
				c0.3-0.1,0.7-0.2,1-0.4c0-0.1-0.1-0.3,0.1-0.4c0.1,0,0.2-0.1,0.2-0.1c0.2,0,0.3,0.2,0.3,0.4c0,0.2-0.2,0.3-0.5,0.3
				c-0.2,0.3-0.3,0.6-0.4,1c0,0.2,0,0.3,0.2,0.4c0.2,0.1,0.3,0.1,0.5,0.1c0.1,0,0.2-0.1,0.2-0.1c0.2-0.2,0.4-0.1,0.5,0
				c0.1,0.1,0,0.3-0.1,0.4c-0.1,0.1-0.3,0.1-0.4,0C6.4,25.6,6.3,25.5,6.3,25.5L6.3,25.5z"/>
			<path class="st1" d="M5.8,4.2c-0.2,0.3-0.3,0.6-0.4,1c-0.1,0.2,0,0.4,0.2,0.5C5.8,5.7,6,5.7,6.1,5.7c0.1,0,0.2-0.1,0.2-0.1
				c0.2-0.2,0.4-0.1,0.5,0.1c0.1,0.1,0,0.3-0.1,0.4C6.7,6.1,6.5,6.1,6.4,6c0,0-0.1-0.1-0.1-0.1L5.1,6.7c-0.7-0.6-1.4-1.2-2-2
				l0.8-1.2c0,0-0.1-0.1-0.1-0.1C3.7,3.3,3.7,3.1,3.8,3c0.1-0.1,0.3-0.1,0.4,0s0.1,0.3,0,0.4C4.2,3.5,4.1,3.5,4.1,3.6
				c0,0.2,0,0.4,0.1,0.5c0.1,0.2,0.2,0.2,0.4,0.2C5,4.3,5.3,4.1,5.6,4c0-0.1-0.1-0.3,0.1-0.4c0.1,0,0.2-0.1,0.2-0.1
				c0.2,0,0.3,0.2,0.3,0.4C6.3,4.1,6.1,4.2,5.8,4.2L5.8,4.2z"/>
			<path class="st1" d="M15.4,4c0-0.3,0.1-0.5,0.3-0.5c0.2,0,0.4,0.2,0.4,0.4c0,0.2-0.2,0.3-0.5,0.3c-0.2,0.3-0.3,0.7-0.4,1.1
				c0,0.2,0.1,0.3,0.2,0.4c0.2,0.1,0.3,0.1,0.5,0.1c0.1,0,0.2-0.1,0.2-0.1c0.2-0.2,0.4-0.2,0.5,0.1c0.1,0.1,0,0.3-0.1,0.4
				c-0.1,0.1-0.3,0.1-0.4,0c0,0-0.1-0.1-0.1-0.1l-1.2,0.8c-0.7-0.6-1.4-1.3-2-2l0.8-1.2c0,0-0.1-0.1-0.1-0.2c-0.1-0.1-0.1-0.3,0-0.4
				c0.1-0.1,0.3-0.1,0.4,0s0.1,0.3,0,0.4c-0.1,0.1-0.2,0.2-0.1,0.3c0,0.2,0,0.4,0.1,0.5c0.1,0.1,0.2,0.1,0.4,0.1
				C14.8,4.3,15.1,4.1,15.4,4L15.4,4z"/>
			<path class="st1" d="M25.2,4c0-0.3,0.1-0.5,0.3-0.5c0.2,0,0.4,0.2,0.4,0.4c0,0.2-0.2,0.3-0.5,0.3c-0.2,0.3-0.3,0.6-0.4,1
				c0,0.2,0,0.4,0.2,0.5c0.1,0.1,0.3,0.1,0.5,0.1c0.1,0,0.2-0.1,0.2-0.1c0.1-0.2,0.4-0.2,0.5,0c0.1,0.1,0,0.3-0.1,0.4
				c-0.1,0.1-0.3,0.1-0.4,0c0,0-0.1-0.1-0.1-0.1l-1.2,0.8c-0.7-0.6-1.4-1.3-2-2l0.8-1.2c0,0-0.1-0.1-0.1-0.1c-0.1-0.1-0.1-0.3,0-0.4
				c0.1-0.1,0.3-0.1,0.4,0c0.1,0.1,0.1,0.3,0,0.4c-0.1,0.1-0.2,0.1-0.2,0.2c0,0.2,0,0.4,0.1,0.6c0.1,0.1,0.2,0.2,0.4,0.1
				C24.6,4.3,24.9,4.2,25.2,4L25.2,4z"/>
			<path class="st1" d="M35.2,4.2c-0.2,0.3-0.3,0.6-0.4,1c0,0.2,0,0.4,0.2,0.4c0.2,0.1,0.3,0.1,0.5,0.1c0.1,0,0.2,0,0.2-0.1
				c0.1-0.1,0.2-0.1,0.3-0.1c0.2,0,0.2,0.1,0.3,0.2c0,0.1,0,0.3-0.1,0.3c-0.1,0.1-0.3,0.1-0.4,0c0,0-0.1-0.1-0.2-0.1l-1.2,0.8
				c-0.7-0.6-1.4-1.3-2-2l0.8-1.2c0,0-0.1-0.1-0.1-0.2c-0.1-0.1-0.1-0.3,0-0.4c0.1-0.1,0.3-0.1,0.4,0c0.1,0.1,0.1,0.3,0,0.4
				c-0.1,0.1-0.2,0.2-0.2,0.4c0,0.2,0,0.4,0.2,0.5c0.1,0.1,0.2,0.1,0.3,0.1c0.4-0.1,0.7-0.2,1-0.4c0-0.3,0.1-0.5,0.3-0.5
				c0.2,0,0.3,0.2,0.3,0.4C35.7,4.1,35.5,4.2,35.2,4.2L35.2,4.2z"/>
			<path class="st1" d="M42.3,4.7l0.8-1.2c0,0-0.1-0.1-0.1-0.2c-0.1-0.1-0.1-0.3,0-0.4c0.1-0.1,0.3-0.1,0.4,0c0.1,0.1,0.1,0.3,0,0.4
				c-0.1,0.1-0.2,0.2-0.2,0.3c0,0.2,0,0.4,0.2,0.5c0.1,0.1,0.2,0.1,0.3,0.1c0.4-0.1,0.7-0.2,1-0.4c0-0.1,0-0.3,0.1-0.4
				c0.1,0,0.2-0.1,0.2-0.1c0.2,0,0.3,0.2,0.3,0.4c0,0.2-0.2,0.3-0.5,0.3c-0.2,0.3-0.3,0.7-0.4,1c0,0.2,0,0.3,0.2,0.4
				c0.2,0.1,0.3,0.1,0.5,0.1c0.1,0,0.2-0.1,0.2-0.1c0.2-0.2,0.4-0.2,0.5,0.1C46.1,5.8,46.1,6,46,6c-0.1,0.1-0.3,0.1-0.4,0
				c0,0-0.1-0.1-0.2-0.1l-1.2,0.8C43.6,6.1,42.9,5.4,42.3,4.7L42.3,4.7z"/>
			<path class="st1" d="M14.9,36.1c-0.7-0.6-1.4-1.3-2-2l0.8-1.2c-0.1,0-0.1-0.1-0.1-0.1c-0.1-0.1-0.1-0.3,0.1-0.4
				c0.1-0.1,0.3-0.1,0.4,0c0.1,0.1,0.1,0.3,0,0.4c-0.1,0.1-0.2,0.1-0.2,0.2c0,0.2,0,0.4,0.1,0.6c0.1,0.1,0.2,0.2,0.4,0.1
				c0.4-0.1,0.7-0.2,1-0.4c0-0.1,0-0.3,0.1-0.4c0.1,0,0.1-0.1,0.2-0.1c0.2,0,0.4,0.2,0.4,0.4c0,0.2-0.2,0.3-0.5,0.3
				c-0.2,0.3-0.3,0.6-0.4,1c0,0.2,0,0.4,0.2,0.5c0.1,0.1,0.3,0.1,0.5,0.1c0.1,0,0.2,0,0.2-0.1c0.1-0.2,0.4-0.2,0.5,0
				c0.1,0.1,0,0.3-0.1,0.4c-0.1,0.1-0.3,0.1-0.4,0c0,0-0.1-0.1-0.1-0.1L14.9,36.1L14.9,36.1z"/>
			<path class="st1" d="M43.1,33c0,0-0.1-0.1-0.1-0.1c-0.1-0.1-0.1-0.3,0-0.4c0.1-0.1,0.3-0.1,0.4,0s0.1,0.3,0,0.4
				c-0.1,0.1-0.2,0.1-0.2,0.2c0,0.2,0,0.4,0.1,0.6c0.1,0.1,0.2,0.2,0.4,0.1c0.4-0.1,0.7-0.2,1-0.4c0-0.1,0-0.3,0.1-0.4
				c0.1,0,0.1-0.1,0.2-0.1c0.2,0,0.4,0.2,0.4,0.4c0,0.2-0.2,0.3-0.5,0.3c-0.2,0.3-0.3,0.6-0.4,1c0,0.2,0,0.4,0.2,0.5
				c0.2,0.1,0.3,0.1,0.5,0.1c0.1,0,0.2,0,0.2-0.1c0.2-0.2,0.4-0.2,0.5,0c0.1,0.1,0,0.3-0.1,0.4c-0.1,0.1-0.3,0.1-0.4,0
				c0,0-0.1-0.1-0.1-0.1l-1.2,0.8c-0.7-0.6-1.4-1.3-2-2L43.1,33L43.1,33z"/>
			<path class="st1" d="M45.5,25.5l-1.2,0.8c-0.4-0.3-1.7-1.5-2-2l0.8-1.1c0,0-0.1-0.1-0.1-0.1c-0.1-0.1-0.1-0.3,0-0.4
				c0.1-0.1,0.3-0.1,0.4,0c0.1,0.1,0.1,0.3,0,0.4c-0.1,0.1-0.2,0.2-0.2,0.3c0,0.2,0,0.4,0.2,0.5c0.1,0.1,0.2,0.1,0.3,0.1
				c0.4-0.1,0.7-0.2,1-0.4c0-0.1,0-0.3,0.1-0.4c0.1,0,0.2-0.1,0.2-0.1c0.2,0,0.4,0.2,0.3,0.4c0,0.2-0.2,0.3-0.5,0.3
				c-0.2,0.3-0.3,0.6-0.4,1c0,0.2,0,0.4,0.2,0.5c0.2,0.1,0.3,0.1,0.5,0.1c0.1,0,0.2,0,0.2-0.1c0.2-0.2,0.4-0.1,0.5,0
				c0.1,0.1,0,0.3-0.1,0.4c-0.1,0.1-0.3,0.1-0.4,0C45.6,25.6,45.5,25.5,45.5,25.5L45.5,25.5z"/>
			<path class="st1" d="M32.5,24.3l0.8-1.1c0,0-0.1-0.1-0.1-0.1c-0.1-0.1-0.1-0.3,0-0.4c0.1-0.1,0.3-0.1,0.4,0
				c0.1,0.1,0.1,0.3,0,0.4c-0.1,0.1-0.2,0.1-0.2,0.3c0,0.2,0,0.4,0.1,0.5C33.7,24,33.9,24,34,24c0.3-0.1,0.7-0.2,1-0.4
				c0-0.1,0-0.3,0.1-0.4c0.1,0,0.1-0.1,0.2-0.1c0.2,0,0.4,0.2,0.4,0.4c0,0.2-0.2,0.3-0.5,0.3c-0.2,0.3-0.3,0.6-0.4,1
				c0,0.1,0,0.3,0.1,0.4c0.2,0.2,0.4,0.2,0.7,0.2c0.1,0,0.1-0.1,0.2-0.1c0.2-0.2,0.4-0.1,0.5,0.1c0.1,0.1,0,0.3-0.1,0.4
				c-0.1,0.1-0.3,0.1-0.4,0c0,0-0.1-0.1-0.1-0.1l-1.2,0.8C34.2,26,32.9,24.8,32.5,24.3L32.5,24.3z"/>
			<path class="st1" d="M19.8,31.1c-0.4-0.2-0.7-0.6-1-0.9s-0.7-0.6-0.9-1c0.1-0.2,0.2-0.4,0.4-0.6s0.2-0.4,0.4-0.6
				c0,0-0.1-0.1-0.1-0.1c-0.1-0.1-0.1-0.3,0-0.4c0.1-0.1,0.3-0.1,0.4,0c0.1,0.1,0.1,0.3,0,0.4c0,0-0.1,0.1-0.1,0.1
				c0,0.2,0,0.4,0.1,0.6c0.1,0.2,0.2,0.3,0.5,0.2c0.3-0.1,0.6-0.2,0.9-0.4c0-0.1,0-0.3,0.1-0.4c0.1,0,0.2-0.1,0.2-0.1
				c0.2,0,0.4,0.2,0.3,0.4c0,0.2-0.2,0.3-0.5,0.3c-0.2,0.3-0.3,0.6-0.4,0.9c0,0.2,0,0.3,0.2,0.4c0.2,0.1,0.4,0.1,0.6,0.1
				c0.1,0,0.1-0.1,0.2-0.1c0.1-0.2,0.4-0.1,0.5,0.1c0.1,0.1,0,0.3-0.1,0.4c-0.1,0.1-0.3,0.1-0.4,0c0,0-0.1-0.1-0.1-0.1
				c-0.2,0.1-0.4,0.3-0.6,0.4S20,31,19.8,31.1L19.8,31.1z"/>
			<path class="st1" d="M20.3,38.3c0-0.3,0.1-0.5,0.3-0.5c0.2,0,0.4,0.2,0.4,0.4c0,0.2-0.2,0.3-0.5,0.3c-0.2,0.3-0.3,0.6-0.4,0.9
				c0,0.2,0,0.4,0.2,0.5c0.2,0.1,0.3,0.1,0.5,0.1c0.1,0,0.1-0.1,0.2-0.1c0.2-0.2,0.4-0.2,0.5,0c0.1,0.1,0,0.3-0.1,0.4
				c-0.1,0.1-0.3,0.1-0.4,0c0,0-0.1-0.1-0.1-0.1l-1.2,0.8c-0.4-0.2-0.7-0.6-1-0.9c-0.3-0.3-0.7-0.6-0.9-1l0.8-1.1
				c0,0-0.1-0.1-0.1-0.1c-0.1-0.1-0.1-0.3,0-0.4c0.1-0.1,0.3-0.1,0.4,0s0.1,0.3,0,0.4c-0.1,0.1-0.2,0.2-0.2,0.3c0,0.2,0,0.4,0.1,0.5
				c0.1,0.1,0.2,0.2,0.4,0.1c0.2,0,0.3-0.1,0.5-0.2S20.2,38.4,20.3,38.3z"/>
			<path class="st1" d="M10.5,8.9c0-0.3,0.1-0.5,0.3-0.5c0.2,0,0.4,0.2,0.4,0.4c0,0.2-0.2,0.3-0.5,0.3c-0.2,0.3-0.3,0.6-0.4,0.9
				c0,0.2,0,0.3,0.2,0.4c0.2,0.1,0.4,0.1,0.5,0.1c0.1,0,0.1-0.1,0.2-0.1c0.2-0.2,0.4-0.1,0.5,0.1c0.1,0.1,0,0.3-0.1,0.4
				c-0.1,0.1-0.3,0.1-0.4,0c-0.1,0-0.1-0.1-0.1-0.2L10,11.5c-0.4-0.2-0.7-0.6-1-0.9c-0.3-0.3-0.7-0.6-0.9-1l0.8-1.1
				c0-0.1-0.1-0.1-0.1-0.1C8.6,8.1,8.6,8,8.7,7.9c0.1-0.1,0.3-0.1,0.4,0c0.1,0.1,0.1,0.3,0,0.4C9.1,8.4,9,8.5,9,8.6
				c0,0.2,0,0.4,0.1,0.5c0.1,0.1,0.2,0.1,0.4,0.1C9.9,9.2,10.2,9,10.5,8.9L10.5,8.9z"/>
			<path class="st1" d="M18.7,8.4c-0.1,0-0.1-0.1-0.1-0.1c-0.1-0.1-0.1-0.3,0-0.4c0.1-0.1,0.3-0.1,0.4,0c0.1,0.1,0.1,0.3,0,0.4
				c-0.1,0.1-0.1,0.2-0.1,0.4c0,0.2,0,0.4,0.2,0.5c0.1,0.1,0.2,0.1,0.3,0.1C19.7,9.2,20,9,20.3,8.9c0-0.3,0.1-0.5,0.3-0.5
				c0.2,0,0.4,0.2,0.4,0.4c0,0.2-0.2,0.3-0.5,0.3c-0.2,0.3-0.3,0.6-0.4,0.9c0,0.2,0,0.3,0.2,0.4s0.4,0.1,0.5,0.1
				c0.1,0,0.1-0.1,0.2-0.1c0.1-0.1,0.1-0.1,0.2-0.1c0.2,0,0.3,0.1,0.3,0.2c0,0.1,0,0.3-0.1,0.3c-0.1,0.1-0.3,0.1-0.4,0
				c0,0-0.1-0.1-0.1-0.1l-1.2,0.8c-0.4-0.2-0.7-0.6-1-0.9c-0.3-0.3-0.7-0.6-0.9-1L18.7,8.4L18.7,8.4z"/>
			<path class="st1" d="M11.2,20.5L10,21.3c-0.4-0.2-0.7-0.6-1-0.9s-0.7-0.6-0.9-1l0.8-1.1c0,0-0.1-0.1-0.1-0.1
				c-0.1-0.1-0.1-0.3,0-0.4c0.1-0.1,0.3-0.1,0.4,0s0.1,0.3,0,0.4C9.1,18.2,9,18.3,9,18.4c0,0.2,0,0.4,0.1,0.5
				c0.1,0.1,0.2,0.1,0.4,0.1c0.3-0.1,0.6-0.2,1-0.4c0-0.1-0.1-0.3,0.1-0.4c0.1,0,0.1-0.1,0.2-0.1c0.2,0,0.4,0.2,0.4,0.4
				c0,0.2-0.2,0.3-0.5,0.3c-0.2,0.3-0.3,0.6-0.4,1c0,0.1,0,0.3,0.1,0.4c0.2,0.1,0.4,0.1,0.6,0.1c0.1,0,0.1-0.1,0.2-0.1
				c0.2-0.2,0.4-0.1,0.5,0.1c0.1,0.1,0,0.3-0.1,0.4c-0.1,0.1-0.3,0.1-0.4,0C11.2,20.7,11.2,20.6,11.2,20.5L11.2,20.5z"/>
			<path class="st1" d="M20.5,18.9c-0.1,0.3-0.3,0.5-0.4,0.8c-0.1,0.3,0,0.5,0.4,0.6c0.1,0,0.2,0,0.2,0c0.1,0,0.2,0,0.3-0.1
				c0.1-0.2,0.4-0.2,0.5,0c0.1,0.1,0,0.3-0.1,0.4c-0.1,0.1-0.3,0.1-0.4,0c0,0-0.1-0.1-0.1-0.1l-1.2,0.8c-0.4-0.2-0.7-0.6-1-0.9
				c-0.3-0.3-0.7-0.6-0.9-1l0.8-1.1c0,0-0.1-0.1-0.1-0.1c-0.1-0.1-0.1-0.3,0-0.4c0.1-0.1,0.3-0.1,0.4,0c0.1,0.1,0.1,0.3,0,0.4
				c-0.1,0.1-0.2,0.1-0.2,0.2c0,0.2,0,0.4,0.1,0.6c0.1,0.1,0.2,0.2,0.4,0.1c0.1,0,0.3-0.1,0.4-0.1c0.2-0.1,0.3-0.1,0.5-0.2
				c0-0.1,0-0.3,0.1-0.4c0.1,0,0.1-0.1,0.2-0.1c0.2,0,0.4,0.2,0.4,0.4C20.9,18.8,20.8,18.9,20.5,18.9L20.5,18.9z"/>
			<path class="st1" d="M10.5,28.5c0-0.3,0.1-0.5,0.3-0.5c0.2,0,0.4,0.2,0.4,0.4c0,0.2-0.2,0.3-0.5,0.3c-0.2,0.3-0.3,0.6-0.4,1
				c0,0.2,0,0.3,0.2,0.4c0.2,0.1,0.4,0.1,0.5,0.1c0.1,0,0.1-0.1,0.2-0.1c0.2-0.2,0.4-0.1,0.5,0.1c0.1,0.1,0,0.3-0.1,0.4
				c-0.1,0.1-0.3,0.1-0.4,0c-0.1,0-0.1-0.1-0.1-0.1L10,31.1c-0.4-0.2-0.7-0.6-1-0.9c-0.3-0.3-0.7-0.6-0.9-1L8.8,28
				c-0.1,0-0.1-0.1-0.1-0.1c-0.1-0.1-0.1-0.3,0-0.4c0.1-0.1,0.3-0.1,0.4,0c0.1,0.1,0.1,0.3,0,0.4S9,28.1,9,28.3c0,0.2,0,0.4,0.2,0.5
				c0.1,0.1,0.2,0.1,0.3,0.1C9.9,28.8,10.2,28.7,10.5,28.5L10.5,28.5z"/>
			<path class="st1" d="M10,40.9c-0.7-0.6-1.4-1.2-1.9-1.9l0.8-1.2c-0.1,0-0.1-0.1-0.1-0.1c-0.1-0.1-0.1-0.3,0-0.4
				c0.1-0.1,0.3-0.1,0.4,0c0.1,0.1,0.1,0.3,0,0.4C9.1,37.8,9,37.9,9,38c0,0.2,0,0.4,0.1,0.6c0.1,0.1,0.2,0.2,0.4,0.1
				c0.1,0,0.3-0.1,0.4-0.1c0.2-0.1,0.3-0.2,0.5-0.2c0-0.1-0.1-0.3,0.1-0.4c0.1,0,0.1-0.1,0.2-0.1c0.2,0,0.4,0.2,0.4,0.4
				c0,0.2-0.2,0.3-0.5,0.3c-0.1,0.3-0.3,0.5-0.4,0.8c-0.1,0.3,0,0.5,0.4,0.6c0.1,0,0.2,0,0.3,0c0.1,0,0.2,0,0.2-0.1
				c0.2-0.2,0.4-0.2,0.5,0c0.1,0.1,0,0.3-0.1,0.4c-0.1,0.1-0.3,0.1-0.4,0c0,0-0.1-0.1-0.1-0.1L10,40.9L10,40.9z"/>
			<path class="st1" d="M40.6,30.3l-1.2,0.8c-0.4-0.2-0.7-0.6-1-0.9c-0.3-0.3-0.7-0.6-0.9-1l0.8-1.1c0,0-0.1-0.1-0.1-0.1
				c-0.1-0.1-0.1-0.3,0-0.4c0.1-0.1,0.3-0.1,0.4,0s0.1,0.3,0,0.4c-0.1,0.1-0.2,0.2-0.2,0.3c0,0.2,0,0.4,0.2,0.5
				c0.1,0.1,0.2,0.1,0.3,0.1c0.3-0.1,0.6-0.2,1-0.4c0-0.1,0-0.3,0.1-0.4c0.1,0,0.1-0.1,0.2-0.1c0.2,0,0.4,0.2,0.3,0.4
				c0,0.2-0.2,0.3-0.5,0.3c-0.2,0.3-0.3,0.6-0.4,1c0,0.1,0,0.2,0.1,0.3c0.2,0.2,0.4,0.2,0.7,0.2c0,0,0.1-0.1,0.2-0.1
				c0.2-0.1,0.4-0.1,0.5,0.1c0.1,0.1,0,0.3-0.1,0.4c-0.1,0.1-0.3,0.1-0.4,0C40.7,30.5,40.6,30.4,40.6,30.3L40.6,30.3z"/>
			<path class="st1" d="M30.3,9.1C30.1,9.4,30,9.7,29.9,10c0,0.2,0,0.4,0.2,0.5c0.2,0.1,0.3,0.1,0.5,0.1c0.1,0,0.1-0.1,0.2-0.1
				c0.2-0.2,0.4-0.2,0.5,0c0.1,0.1,0,0.3-0.1,0.4c-0.1,0.1-0.3,0.1-0.4,0c0,0-0.1-0.1-0.1-0.1l-1.2,0.8c-0.4-0.2-0.7-0.6-1-0.9
				c-0.3-0.3-0.7-0.6-0.9-1l0.8-1.1c0-0.1-0.1-0.1-0.1-0.1c-0.1-0.1-0.1-0.3,0-0.4c0.1-0.1,0.3-0.1,0.4,0c0.1,0.1,0.1,0.3,0,0.4
				c-0.1,0.1-0.2,0.1-0.2,0.2c0,0.2,0,0.4,0.1,0.6c0.1,0.1,0.2,0.2,0.4,0.1c0.3-0.1,0.6-0.2,0.9-0.4c0-0.1,0-0.3,0.1-0.4
				c0.1-0.1,0.1-0.1,0.2-0.1c0.2,0,0.4,0.2,0.4,0.4C30.8,9,30.6,9.1,30.3,9.1L30.3,9.1z"/>
			<path class="st1" d="M40.6,10.7l-1.2,0.8c-0.4-0.2-0.7-0.6-1-0.9c-0.3-0.3-0.7-0.6-0.9-1l0.8-1.1c0-0.1-0.1-0.1-0.1-0.1
				C38,8.2,38,8,38.2,7.9c0.1-0.1,0.3-0.1,0.4,0c0.1,0.1,0.1,0.3,0,0.4c-0.1,0.1-0.2,0.1-0.2,0.2c0,0.2,0,0.4,0.1,0.6
				c0.1,0.1,0.2,0.2,0.4,0.1c0.2,0,0.3-0.1,0.4-0.1c0.2-0.1,0.3-0.1,0.5-0.2c0-0.1,0-0.3,0.1-0.4c0.1-0.1,0.1-0.1,0.2-0.1
				c0.2,0,0.4,0.2,0.3,0.4c0,0.2-0.2,0.3-0.5,0.3C40,9.4,39.8,9.7,39.7,10c0,0.2,0,0.4,0.2,0.5c0.2,0.1,0.3,0.1,0.5,0.1
				c0.1,0,0.1-0.1,0.2-0.1c0.2-0.2,0.4-0.2,0.5,0.1c0.1,0.1,0,0.3-0.1,0.4c-0.1,0.1-0.3,0.1-0.4,0C40.7,10.9,40.6,10.8,40.6,10.7
				L40.6,10.7z"/>
			<path class="st1" d="M27.7,29.2l0.8-1.1c0,0-0.1-0.1-0.1-0.1c-0.1-0.1-0.1-0.3,0-0.4c0.1-0.1,0.3-0.1,0.4,0
				c0.1,0.1,0.1,0.3,0,0.4s-0.1,0.2-0.1,0.4c0,0.2,0,0.4,0.2,0.5c0.1,0.1,0.2,0.1,0.3,0.1c0.3-0.1,0.6-0.2,0.9-0.4
				c0-0.3,0.1-0.5,0.3-0.5c0.2,0,0.4,0.2,0.4,0.4c0,0.2-0.2,0.3-0.5,0.3c-0.2,0.3-0.3,0.6-0.4,0.9c0,0.2,0,0.3,0.2,0.5
				c0.2,0.1,0.3,0.1,0.5,0.1c0.1,0,0.1-0.1,0.2-0.1c0.2-0.2,0.4-0.1,0.5,0.1c0.1,0.1,0,0.3-0.1,0.4c-0.1,0.1-0.3,0.1-0.4,0
				c0,0-0.1-0.1-0.1-0.1l-1.1,0.8c-0.4-0.2-0.7-0.6-1-0.9C28.3,29.9,27.9,29.6,27.7,29.2L27.7,29.2z"/>
			<path class="st1" d="M30.8,20.6l-1.1,0.8c-0.4-0.2-0.7-0.6-1-0.9c-0.3-0.3-0.7-0.6-0.9-1c0.1-0.2,0.2-0.4,0.4-0.6
				s0.2-0.4,0.4-0.6c0,0-0.1-0.1-0.1-0.1c-0.1-0.1-0.1-0.3,0-0.4c0.1-0.1,0.3-0.1,0.4,0c0.1,0.1,0.1,0.3,0,0.4c0,0-0.1,0.1-0.1,0.1
				c0,0.2,0,0.4,0.1,0.6c0.1,0.2,0.2,0.2,0.4,0.2c0.1,0,0.1,0,0.2,0c0.2-0.1,0.5-0.2,0.8-0.3c0-0.2,0-0.3,0.1-0.4
				c0.1,0,0.1-0.1,0.2-0.1c0.2,0,0.4,0.2,0.3,0.4c0,0.2-0.2,0.3-0.5,0.3c-0.1,0.3-0.3,0.6-0.4,0.9c0,0.2,0,0.4,0.2,0.5
				c0.2,0.1,0.3,0.1,0.5,0.1c0.1,0,0.1-0.1,0.2-0.1c0.1-0.2,0.4-0.1,0.5,0.1c0.1,0.1,0,0.3-0.1,0.4c-0.1,0.1-0.3,0.1-0.4,0
				C30.9,20.6,30.8,20.6,30.8,20.6L30.8,20.6z"/>
			<path class="st1" d="M39.9,18.7c0-0.3,0.1-0.5,0.3-0.5c0.2,0,0.4,0.2,0.4,0.4c0,0.2-0.2,0.3-0.5,0.3c-0.2,0.3-0.3,0.6-0.4,0.9
				c0,0.2,0,0.4,0.2,0.5c0.2,0.1,0.3,0.1,0.5,0.1c0.1,0,0.1-0.1,0.2-0.1c0.2-0.2,0.4-0.1,0.5,0c0.1,0.1,0,0.3-0.1,0.4
				c-0.1,0.1-0.3,0.1-0.4,0c0,0-0.1-0.1-0.1-0.1l-1.2,0.8c-0.4-0.2-0.7-0.6-1-0.9c-0.3-0.3-0.7-0.6-0.9-1c0.1-0.2,0.2-0.4,0.4-0.6
				c0.1-0.2,0.2-0.4,0.4-0.6c0,0-0.1-0.1-0.1-0.1c-0.1-0.1-0.1-0.3,0-0.4c0.1-0.1,0.3-0.1,0.4,0s0.1,0.3,0,0.4
				c-0.1,0.1-0.2,0.1-0.2,0.2c0,0.2,0,0.4,0.1,0.6c0.1,0.1,0.2,0.2,0.4,0.1c0.2,0,0.3-0.1,0.4-0.1C39.6,18.9,39.7,18.8,39.9,18.7
				L39.9,18.7z"/>
			<path class="st1" d="M39.9,38.3c0-0.3,0.1-0.5,0.3-0.5c0.2,0,0.4,0.2,0.4,0.4c0,0.2-0.2,0.3-0.5,0.3c-0.2,0.3-0.3,0.6-0.4,0.9
				c0,0.2,0,0.3,0.2,0.4s0.4,0.1,0.5,0.1c0.1,0,0.1-0.1,0.2-0.1c0.1-0.1,0.2-0.1,0.2-0.1c0.2,0,0.3,0.1,0.3,0.2c0,0.1,0,0.3-0.1,0.3
				c-0.1,0.1-0.3,0.1-0.4,0c0,0-0.1-0.1-0.1-0.1l-1.2,0.8c-0.4-0.2-0.7-0.6-1-0.9c-0.3-0.3-0.7-0.6-0.9-1l0.8-1.1
				c0,0-0.1-0.1-0.1-0.1c-0.1-0.2-0.1-0.3,0-0.4c0.1-0.1,0.3-0.1,0.4,0s0.1,0.3,0,0.4c-0.1,0.1-0.2,0.2-0.1,0.4c0,0.2,0,0.4,0.2,0.5
				c0.1,0.1,0.2,0.1,0.3,0.1C39.3,38.6,39.6,38.5,39.9,38.3L39.9,38.3z"/>
			<path class="st1" d="M27.7,39l0.8-1.1c0,0-0.1-0.1-0.1-0.2c-0.1-0.1-0.1-0.3,0-0.4c0.1-0.1,0.3-0.1,0.4,0s0.1,0.3,0,0.4
				c-0.1,0.1-0.2,0.2-0.1,0.3c0,0.2,0,0.4,0.1,0.5c0.1,0.1,0.2,0.1,0.4,0.1c0.3-0.1,0.6-0.2,1-0.4c0-0.1,0-0.3,0.1-0.4
				c0.1,0,0.1-0.1,0.2-0.1c0.2,0,0.4,0.2,0.4,0.4c0,0.2-0.2,0.3-0.5,0.3c-0.2,0.3-0.3,0.6-0.4,1c0,0.2,0,0.3,0.2,0.4
				c0.2,0.1,0.4,0.1,0.5,0.1c0.1,0,0.1-0.1,0.2-0.1c0.2-0.2,0.4-0.2,0.5,0.1c0.1,0.1,0,0.3-0.1,0.4c-0.1,0.1-0.3,0.1-0.4,0
				c0,0-0.1-0.1-0.1-0.2l-1.2,0.8c-0.4-0.2-0.7-0.6-1-0.9C28.3,39.7,27.9,39.4,27.7,39L27.7,39z"/>
			<path class="st1" d="M14.7,26.4l-0.1,0.1l-1.9-1.9l0.1-0.1C12.8,24.5,14.7,26.4,14.7,26.4z"/>
			<path class="st1" d="M2.9,24.6L2.9,24.6l2,1.8l-0.1,0.1L2.9,24.6z"/>
			<path class="st1" d="M37.2,19.7l0.1-0.1l1.9,1.9l-0.1,0.1C39.1,21.6,37.2,19.7,37.2,19.7z"/>
			<path class="st1" d="M27.4,19.7l0.1-0.1l1.9,1.9l-0.1,0.1C29.3,21.6,27.4,19.7,27.4,19.7z"/>
			<path class="st1" d="M17.6,19.7l0.1-0.1l1.9,1.9l-0.1,0.1L17.6,19.7L17.6,19.7z"/>
			<path class="st1" d="M9.8,31.2l-0.1,0.1l-1.9-1.9l0.1-0.1L9.8,31.2z"/>
			<path class="st1" d="M17.6,29.5l0.1-0.1l1.9,1.9l-0.1,0.1L17.6,29.5L17.6,29.5z"/>
			<path class="st1" d="M29.5,31.3l-0.1,0.1l-1.9-1.9l-0.1,0l0.1-0.2L29.5,31.3L29.5,31.3z"/>
			<path class="st1" d="M39.3,31.3l-0.1,0.1l-1.9-1.9l0.1-0.1C37.4,29.4,39.3,31.3,39.3,31.3z"/>
			<path class="st1" d="M22.5,24.6l0.1-0.1l1.9,1.9l-0.1,0.1L22.5,24.6L22.5,24.6z"/>
			<path class="st1" d="M7.8,19.7l0.1-0.1l1.9,1.9l-0.1,0.1C9.7,21.6,7.8,19.7,7.8,19.7z"/>
			<path class="st1" d="M44.1,16.6L44.1,16.6l-2-1.8l0.1-0.1L44.1,16.6L44.1,16.6z"/>
			<path class="st1" d="M32.4,14.8L32.4,14.8l2,1.8l-0.1,0.1L32.4,14.8z"/>
			<path class="st1" d="M24.5,16.6l-0.1,0.1l-1.9-1.9l-0.1,0l0.1-0.2L24.5,16.6L24.5,16.6z"/>
			<path class="st1" d="M4.9,36.2l-0.1,0.1l-1.9-1.9L3,34.3L4.9,36.2z"/>
			<path class="st1" d="M14.7,36.2l-0.1,0.1l-1.9-1.9l0.1-0.1L14.7,36.2z"/>
			<path class="st1" d="M22.5,34.4L22.5,34.4l2,1.8l-0.1,0.1L22.5,34.4L22.5,34.4z"/>
			<path class="st1" d="M34.3,36.2l-0.1,0.1l-1.9-1.9l0.1-0.1L34.3,36.2z"/>
			<path class="st1" d="M44.1,36.2L44.1,36.2l-2-1.8l0.1-0.1L44.1,36.2L44.1,36.2z"/>
			<path class="st1" d="M12.7,14.8l0.1-0.1l1.9,1.9l-0.1,0.1L12.7,14.8L12.7,14.8z"/>
			<path class="st1" d="M4.9,16.6l-0.1,0.1l-1.9-1.9L3,14.7C3,14.7,4.9,16.6,4.9,16.6z"/>
			<path class="st1" d="M39.3,11.6l-0.1,0.1l-1.9-1.9l0.1-0.1L39.3,11.6L39.3,11.6z"/>
			<path class="st1" d="M29.5,11.7l-0.1,0.1l-1.9-1.9l0.1-0.1L29.5,11.7L29.5,11.7z"/>
			<path class="st1" d="M17.8,9.8l1.9,1.9l-0.1,0.1l-1.9-1.9L17.8,9.8L17.8,9.8z"/>
			<path class="st1" d="M7.8,39.3l0.1-0.1L9.8,41l-0.1,0.1L7.8,39.3L7.8,39.3z"/>
			<path class="st1" d="M17.8,39.2l1.9,1.9l-0.1,0.1l-1.9-1.9C17.6,39.3,17.8,39.2,17.8,39.2z"/>
			<path class="st1" d="M27.4,39.3l0.1-0.1l1.9,1.9l-0.1,0.1L27.4,39.3L27.4,39.3z"/>
			<path class="st1" d="M39.3,41.1l-0.1,0.1l-1.9-1.9l0.1-0.1C37.4,39.2,39.3,41.1,39.3,41.1z"/>
			<path class="st1" d="M9.9,11.7l-0.1,0.1L7.8,9.9L8,9.8L9.9,11.7L9.9,11.7z"/>
			<path class="st1" d="M44.1,6.8L44.1,6.8l-2-1.8l0.1-0.1C42.2,4.9,44.1,6.8,44.1,6.8z"/>
			<path class="st1" d="M32.3,5L32.3,5l2,1.8l-0.1,0.1L32.3,5L32.3,5z"/>
			<path class="st1" d="M24.5,6.8l-0.1,0.1L22.5,5l0.1-0.1C22.6,4.9,24.5,6.8,24.5,6.8z"/>
			<path class="st1" d="M4.9,6.8L4.9,6.8L2.9,5L3,4.9L4.9,6.8L4.9,6.8z"/>
			<path class="st1" d="M4.9,46l-0.1,0.1L3,44.2l-0.1,0L3,44.1L4.9,46L4.9,46z"/>
			<path class="st1" d="M12.7,5L12.7,5l2,1.8l-0.1,0.1L12.7,5L12.7,5z"/>
			<path class="st1" d="M24.5,46l-0.1,0.1l-1.9-1.9l0.1-0.1L24.5,46L24.5,46z"/>
			<path class="st1" d="M32.3,44.2L32.3,44.2l2,1.8l-0.1,0.1C34.2,46.1,32.3,44.2,32.3,44.2z"/>
			<path class="st1" d="M42.2,44.2L42.2,44.2l2,1.8L44,46.1L42.2,44.2L42.2,44.2z"/>
			<path class="st1" d="M12.7,44.2L12.7,44.2l2,1.8l-0.1,0.1L12.7,44.2L12.7,44.2z"/>
			<path class="st1" d="M32.3,24.6l0.1-0.1l1.9,1.9l-0.1,0.1L32.3,24.6L32.3,24.6z"/>
			<path class="st1" d="M42.2,24.6L42.2,24.6l2,1.8L44,26.5C44,26.5,42.1,24.6,42.2,24.6z"/>
		</g>
	</g>
</g>
</svg>
